<svg width="137" height="65" viewBox="0 0 137 65" fill="none" xmlns="http://www.w3.org/2000/svg">
<path d="M6.32528 31.0718C7.47218 31.0716 8.58973 31.4221 9.51781 32.0732C10.4459 32.7244 11.1369 33.6427 11.4918 34.6965C12.3401 36.726 12.7438 38.9033 12.6773 41.0911C12.7578 42.8054 12.386 44.5114 11.5968 46.0488C10.8075 47.5861 9.62675 48.9042 8.16541 49.8794C6.45154 51.027 4.52223 51.8401 2.4858 52.2731C1.97984 52.3846 1.44891 52.3051 1.0016 52.0508C0.554297 51.7966 0.224427 51.3868 0.0794813 50.9052C-0.0110542 50.6129 -0.0244811 50.3034 0.0404149 50.0047C0.105311 49.7061 0.246467 49.4279 0.451043 49.1955C0.717538 48.8875 1.07594 48.6666 1.47727 48.5628C5.01597 47.8447 7.24535 46.3686 8.16541 44.1345C8.52204 43.1812 8.69592 42.1731 8.67852 41.1595C8.67852 37.7399 8.11233 35.6711 6.90917 35.0727C6.71227 34.9739 6.49407 34.9211 6.27221 34.9188C4.69748 34.9188 4.27284 36.6286 4.18437 37.8254C4.13115 38.1597 4.13115 38.4999 4.18437 38.8342C4.62671 40.544 6.96226 40.8346 7.36921 42.5273C7.44239 42.8169 7.42794 43.1208 7.32756 43.4027C7.22719 43.6846 7.04512 43.9326 6.80302 44.1174C6.40638 44.283 5.97886 44.3685 5.54678 44.3685C5.1147 44.3685 4.68717 44.283 4.29053 44.1174C3.10461 43.9369 2.03492 43.3252 1.30034 42.4076C0.593448 41.3942 0.194985 40.2095 0.150257 38.9881C-0.0443716 35.4488 1.91961 30.9008 6.16605 30.9008" fill="#FFD400"/>
<path d="M10.6456 42.2988C10.6383 41.9858 10.7108 41.6761 10.8564 41.3986C11.0019 41.1211 11.2158 40.8848 11.4781 40.712C11.8148 40.4743 12.2165 40.3451 12.6293 40.3417C13.0012 40.3417 13.4263 40.3417 13.9222 40.3417C14.7991 40.3456 15.6591 40.101 16.4017 39.6365C16.7036 39.2881 16.9289 38.8807 17.0631 38.4404C17.1973 38.0001 17.2375 37.5367 17.181 37.08C17.181 36.4806 17.181 35.6696 17.057 34.6999C17.0238 34.3839 17.0714 34.0647 17.1952 33.7719C17.3191 33.4791 17.5152 33.2222 17.7654 33.025C18.119 32.7303 18.562 32.5626 19.0229 32.5489C19.512 32.5538 19.9826 32.7352 20.3475 33.0595C20.7123 33.3837 20.9465 33.8288 21.0065 34.312C21.2309 36.4982 21.3903 37.8029 21.4847 38.226C21.5121 38.5758 21.6168 38.9153 21.7913 39.2201C21.9658 39.5249 22.2058 39.7875 22.4942 39.9891C23.4374 40.3439 24.4458 40.4942 25.452 40.4299H25.7708C26.0895 40.4106 26.4076 40.4774 26.6913 40.6232C26.975 40.7691 27.2138 40.9886 27.3825 41.2585C27.623 41.5861 27.7532 41.9811 27.7544 42.3869C27.7631 42.7026 27.6913 43.0153 27.5458 43.2958C27.4002 43.5764 27.1856 43.8157 26.922 43.9913C26.5863 44.231 26.1839 44.3605 25.7708 44.3616C23.9095 44.5065 22.0499 44.0622 20.4575 43.0921C19.979 42.7453 19.5552 42.3293 19.2 41.858C18.602 42.5893 17.8526 43.1836 17.0029 43.6004C16.1532 44.0173 15.2232 44.2468 14.2764 44.2734C13.6864 44.3048 13.0952 44.3048 12.5053 44.2734C12.1863 44.2819 11.8704 44.2085 11.5882 44.0602C11.3059 43.912 11.0667 43.694 10.8936 43.4271C10.6508 43.1007 10.5204 42.7049 10.5217 42.2988M10.6456 30.8035C10.4676 30.587 10.3548 30.3247 10.3203 30.047C10.2858 29.7693 10.3311 29.4875 10.4508 29.2344C10.5786 28.9863 10.7601 28.7695 10.9821 28.5997C12.5052 27.4742 14.3639 26.8906 16.26 26.9424C17.4022 26.8761 18.533 27.1995 19.4657 27.8592C19.7852 28.1015 20.0408 28.4174 20.2104 28.7798C20.3801 29.1422 20.4588 29.5402 20.4398 29.9396C20.4612 30.2407 20.396 30.5416 20.2516 30.807C20.1073 31.0724 19.89 31.2914 19.6251 31.4382C19.3864 31.6038 19.1013 31.6902 18.8104 31.685C18.5375 31.7066 18.2641 31.6501 18.0224 31.522C17.7808 31.3939 17.581 31.1997 17.4466 30.9622C17.3974 30.8415 17.3559 30.7179 17.3227 30.5919C17.3227 30.2569 16.9507 30.0983 16.26 30.0983C15.0781 30.083 13.9227 30.4478 12.9658 31.1385C12.735 31.3194 12.4561 31.4292 12.1634 31.4542C11.8707 31.4793 11.5771 31.4186 11.3186 31.2795C11.0962 31.1653 10.9025 31.0026 10.7519 30.8035" fill="#FFD400"/>
<path d="M34.3462 35.3452C34.138 35.3333 33.9296 35.362 33.733 35.4298C33.5364 35.4975 33.3556 35.6029 33.2013 35.7398C32.9399 36.0021 32.739 36.316 32.6121 36.6605C32.058 38.4366 31.2893 40.1419 30.3224 41.7406C29.7856 42.4437 29.0828 43.0098 28.2737 43.3905C27.4646 43.7712 26.5733 43.9553 25.6757 43.9272C25.3702 43.9348 25.0677 43.8663 24.7967 43.7282C24.5258 43.5902 24.2952 43.3871 24.1268 43.138C23.9081 42.8287 23.7907 42.4618 23.7901 42.0858C23.7945 41.6003 23.9952 41.1362 24.3483 40.7944C24.7014 40.4527 25.1785 40.2609 25.6757 40.261C25.96 40.2879 26.2469 40.2581 26.5189 40.1733C26.791 40.0885 27.0426 39.9505 27.2583 39.7677C27.7065 39.1091 28.0367 38.3808 28.2347 37.614C28.277 37.4527 28.3276 37.2936 28.3863 37.1372C28.6111 36.1146 29.0503 35.1485 29.6761 34.2996C30.302 33.4508 31.101 32.7377 32.0228 32.2051C32.7969 31.8522 33.6436 31.6778 34.4977 31.6954C35.3942 31.7212 36.2718 31.9536 37.0588 32.3736C37.8459 32.7936 38.5201 33.3893 39.0265 34.1122C39.8795 35.3325 40.3637 36.7625 40.4239 38.2388C40.5008 39.1683 40.3466 40.1022 39.9743 40.9609C39.602 41.8197 39.0227 42.5779 38.2857 43.1709C37.3642 43.8954 36.2327 44.3185 35.0514 44.3805C33.87 44.4425 32.6986 44.1401 31.7029 43.5162C31.5403 43.4222 31.4011 43.2942 31.2951 43.1414C31.1892 42.9886 31.1192 42.8148 31.0902 42.6325C31.0613 42.4502 31.074 42.2638 31.1275 42.0869C31.1811 41.9099 31.2741 41.7468 31.3999 41.6091C31.7729 41.2669 32.2173 41.0074 32.7026 40.8485C33.1879 40.6896 33.7026 40.635 34.2115 40.6884H34.5313C36.6022 40.6884 36.9389 38.7977 36.4338 37.1701C36.3473 36.8294 36.1927 36.5088 35.9789 36.2267C35.7651 35.9445 35.4963 35.7064 35.1879 35.5261C34.9266 35.396 34.6393 35.3231 34.3462 35.3124" fill="#FFD400"/>
<path d="M44.0921 33.4221C44.3963 33.3285 44.72 33.3201 45.0286 33.3978C45.3372 33.4755 45.6189 33.6364 45.8436 33.8631C46.135 34.1184 46.3426 34.4567 46.4391 34.8333C47.1143 37.1266 47.4911 39.4984 47.5601 41.8893C47.673 43.6381 47.3083 45.3847 46.5056 46.9395C45.7028 48.4944 44.4925 49.7981 43.0062 50.7093C41.7112 51.4586 40.303 51.989 38.8376 52.2793C38.5277 52.3455 38.2066 52.3352 37.9016 52.2491C37.5966 52.1631 37.3168 52.004 37.0861 51.7854C36.8071 51.4975 36.613 51.1372 36.5256 50.7446C36.4552 50.4327 36.4632 50.108 36.5488 49.8C36.6345 49.492 36.7951 49.2104 37.016 48.9806C37.2944 48.6953 37.6462 48.4937 38.0319 48.3985C39.7389 48.1968 41.3236 47.405 42.5157 46.1582C43.3588 44.8778 43.7534 43.3506 43.6367 41.8188C43.5704 39.7343 43.2468 37.6663 42.6734 35.6624C42.5783 35.3576 42.5671 35.0325 42.6412 34.7218C42.7152 34.4111 42.8716 34.1265 43.0937 33.8984C43.3527 33.6077 43.6859 33.3942 44.0571 33.281" fill="#FFD400"/>
<path d="M61.2853 31.5229C60.9701 31.8584 60.7409 32.266 60.6177 32.7106C60.572 32.975 60.6141 33.2472 60.7375 33.4852C61.0799 34.2598 61.7988 34.4492 62.4492 34.7418C62.7171 34.8284 62.9653 34.9672 63.1797 35.1503C63.3941 35.3334 63.5705 35.5573 63.6988 35.809C64.1096 36.8763 63.6988 38.5116 63.0483 38.5288C62.1101 38.577 61.172 38.4305 60.2924 38.0984C59.4622 37.83 58.7258 37.3283 58.1699 36.6525C57.6518 35.8299 57.3513 34.8878 57.2969 33.9156C57.2114 33.2009 57.2114 32.4785 57.2969 31.7639C57.4425 30.8759 57.8009 30.037 58.3411 29.3195C58.8365 28.506 59.5623 27.86 60.4255 27.4643C61.2887 27.0686 62.2497 26.9414 63.1853 27.099C64.1441 27.1491 65.0798 27.4137 65.9241 27.8736C66.5356 28.2165 67.0577 28.7002 67.4475 29.2851C67.8524 29.8986 68.1585 30.5725 68.3547 31.2819C68.7785 32.8764 68.9915 34.5201 68.9881 36.1705V36.8763C69.0166 37.8 68.8532 38.7194 68.5084 39.576C68.1635 40.4326 67.6448 41.2074 66.9853 41.851C66.7445 42.0873 66.487 42.3059 66.215 42.5051C64.0059 43.8764 61.4286 44.5259 58.8375 44.3642C56.9914 44.434 55.1441 44.2604 53.3428 43.8478C52.337 43.5597 51.4228 43.014 50.6896 42.2641C49.722 41.0922 49.1842 39.6216 49.1662 38.0984C49.1662 37.737 49.1662 37.341 49.1662 36.8763C49.1662 32.1253 49.1662 27.822 49.3716 24.0178C49.3643 23.7086 49.4399 23.4033 49.5905 23.1337C49.7411 22.8641 49.9611 22.6403 50.2275 22.4858C50.5617 22.2644 50.9574 22.1558 51.3572 22.1759C51.6617 22.1717 51.9619 22.2492 52.2266 22.4005C52.4914 22.5518 52.7113 22.7713 52.8635 23.0366C53.0816 23.3745 53.1948 23.7699 53.1888 24.1727C53.0746 27.3515 53.0176 31.586 53.0176 36.8763C52.936 37.7391 53.0899 38.608 53.4626 39.3895L53.668 39.6304C54.5703 40.2267 55.6364 40.5218 56.7149 40.4739C57.2969 40.4739 58.0158 40.4739 58.8717 40.4739C60.5714 40.5745 62.2671 40.218 63.7844 39.4411L64.0069 39.3034C64.3049 39.1123 64.5594 38.8603 64.7541 38.5637C64.9487 38.2671 65.0791 37.9326 65.1367 37.582C65.1549 37.3586 65.1549 37.1341 65.1367 36.9107C65.1367 34.6557 65.0168 31.0409 62.0384 30.9893C61.6976 31.076 61.3959 31.2762 61.1826 31.5573" fill="#FFD400"/>
<path d="M60.2682 21.6858C60.2687 21.3949 60.3407 21.1085 60.4781 20.8507C60.6156 20.5929 60.8145 20.3713 61.0579 20.2048C61.4105 19.9413 61.8408 19.7969 62.2843 19.7934C62.6374 19.7951 62.9828 19.895 63.2802 20.0815C63.5776 20.2679 63.8149 20.5332 63.9644 20.8465C64.1301 21.0972 64.223 21.3873 64.2332 21.6858C64.2273 22.1604 64.0686 22.6211 63.7796 23.0022C63.6041 23.2378 63.374 23.4293 63.1082 23.5609C62.8424 23.6925 62.5485 23.7604 62.2507 23.7591C61.8475 23.7738 61.4509 23.6552 61.1248 23.4224C60.7987 23.1896 60.5621 22.8561 60.453 22.4756C60.3554 22.2225 60.2987 21.956 60.285 21.6858" fill="#FFD400"/>
<path d="M6.30529 29.4737C7.46235 29.4771 8.58831 29.8484 9.52005 30.5341C10.4518 31.2197 11.1409 32.184 11.4877 33.2873C12.3351 35.3936 12.7399 37.6517 12.6768 39.9211C12.7593 41.6998 12.3871 43.4703 11.5953 45.0654C10.8034 46.6605 9.61812 48.0278 8.15108 49.0382C6.42759 50.2096 4.49267 51.0349 2.45401 51.4683C2.14338 51.5491 1.81724 51.5491 1.50659 51.4684C1.19593 51.3877 0.911109 51.2289 0.679217 51.0071C0.378809 50.7622 0.166878 50.4258 0.0757958 50.0493C-0.0118322 49.7457 -0.0236797 49.4252 0.0412944 49.116C0.106269 48.8068 0.246082 48.5182 0.4485 48.2755C0.71678 47.9608 1.07662 47.7376 1.47787 47.6369C5.02744 46.892 7.26369 45.3547 8.18658 43.0252C8.54431 42.0362 8.71871 40.9903 8.70126 39.9389C8.70126 36.3913 8.13332 34.2628 6.92647 33.642C6.72896 33.5395 6.51011 33.4848 6.28756 33.4824C4.70799 33.4824 4.28204 35.2561 4.19331 36.4978C4.13992 36.8446 4.13992 37.1975 4.19331 37.5443C4.637 39.318 6.97971 39.6196 7.38792 41.3578C7.46275 41.6609 7.44902 41.9791 7.34835 42.2747C7.24769 42.5702 7.06431 42.8307 6.81998 43.0252C6.42212 43.197 5.9933 43.2856 5.55989 43.2856C5.12647 43.2856 4.69765 43.197 4.29979 43.0252C3.11084 42.8362 2.03844 42.202 1.30039 41.2514C0.587839 40.2018 0.187816 38.9717 0.146775 37.7039C-0.0484514 34.0322 1.92157 29.3141 6.18106 29.3141" fill="#275C35"/>
<path d="M10.5541 41.5852C10.5454 41.2682 10.6172 40.9542 10.7628 40.6724C10.9084 40.3907 11.123 40.1504 11.3867 39.974C11.7502 39.7237 12.1857 39.5994 12.6267 39.62H13.9198C14.8001 39.6287 15.6632 39.3761 16.3998 38.8941C16.7032 38.5487 16.9296 38.1427 17.064 37.7032C17.1984 37.2636 17.2377 36.8005 17.1792 36.3446C17.1792 35.725 17.1792 34.9283 17.0552 33.9545C17.0043 33.6231 17.0431 33.284 17.1677 32.9727C17.2924 32.6613 17.4982 32.389 17.7638 32.1841C18.1175 31.8882 18.5605 31.7198 19.0215 31.7061C19.3403 31.6866 19.6584 31.7537 19.9422 31.9002C20.2259 32.0467 20.4648 32.2671 20.6335 32.5382C20.8439 32.8161 20.9727 33.1472 21.0055 33.4942C21.2299 35.6896 21.3893 36.9997 21.4838 37.4246C21.5135 37.7753 21.6192 38.1152 21.7936 38.421C21.9679 38.7267 22.2067 38.9908 22.4935 39.1951C23.4381 39.5453 24.4466 39.6901 25.4517 39.62H25.7706C26.0897 39.6115 26.4056 39.6852 26.6879 39.834C26.9702 39.9829 27.2094 40.2018 27.3826 40.4698C27.6254 40.7976 27.7559 41.195 27.7546 41.6029C27.7619 41.9171 27.6894 42.2282 27.5438 42.5068C27.3982 42.7855 27.1843 43.0227 26.922 43.1963C26.5863 43.437 26.1838 43.567 25.7706 43.5681C23.909 43.7136 22.049 43.2675 20.4563 42.2933C19.9782 41.9515 19.5542 41.5396 19.1986 41.0717C18.5982 41.8034 17.8481 42.3984 16.9988 42.8167C16.1495 43.2351 15.2205 43.4671 14.2741 43.4972C13.684 43.5282 13.0927 43.5282 12.5027 43.4972C12.1858 43.5043 11.8722 43.4318 11.5906 43.2865C11.309 43.1411 11.0683 42.9275 10.8907 42.6651C10.6501 42.3362 10.5199 41.9395 10.5187 41.532M10.6427 29.9887C10.4665 29.7704 10.3548 29.5071 10.3204 29.2287C10.286 28.9502 10.3301 28.6677 10.4478 28.413C10.5754 28.1588 10.7567 27.9353 10.9792 27.758C12.4893 26.6738 14.3106 26.1084 16.1695 26.1469C17.3108 26.0901 18.4387 26.4139 19.3758 27.0675C19.6967 27.3136 19.9531 27.6339 20.1228 28.0009C20.2925 28.3679 20.3705 28.7706 20.3501 29.1743C20.3715 29.4767 20.3062 29.7788 20.1619 30.0454C20.0176 30.3119 19.8002 30.5318 19.5352 30.6792C19.2927 30.8376 19.01 30.9236 18.7203 30.9271C18.4474 30.9488 18.1739 30.892 17.9322 30.7633C17.6905 30.6347 17.4907 30.4397 17.3563 30.2012C17.3071 30.0801 17.2657 29.9559 17.2323 29.8294C17.2323 29.493 16.8604 29.316 16.1695 29.316C14.9869 29.3156 13.8341 29.6873 12.8747 30.3782C12.6419 30.5558 12.3633 30.6635 12.0716 30.6886C11.7798 30.7137 11.4869 30.6551 11.2272 30.5199C11.0047 30.4052 10.811 30.2418 10.6604 30.0418" fill="#275C35"/>
<path d="M34.3464 34.0012C34.1394 33.9862 33.9316 34.0139 33.7351 34.0829C33.5386 34.1518 33.3572 34.2605 33.2016 34.4028C32.9363 34.685 32.7351 35.0249 32.6123 35.3979C32.0552 37.2827 31.2867 39.0933 30.3227 40.7925C29.7871 41.5392 29.0841 42.1393 28.2745 42.5409C27.4648 42.9424 26.573 43.1333 25.6762 43.0969C25.3728 43.1037 25.0724 43.0322 24.8021 42.889C24.5318 42.7458 24.3 42.5353 24.1274 42.2764C23.9106 41.9469 23.7934 41.5579 23.7907 41.1591C23.7829 40.8423 23.853 40.5286 23.9944 40.2476C24.1358 39.9666 24.3437 39.7276 24.5988 39.5529C24.9156 39.3262 25.2913 39.2044 25.6762 39.2038C25.9605 39.2324 26.2474 39.2007 26.5194 39.1107C26.7915 39.0206 27.043 38.8741 27.2587 38.68C27.7102 37.9825 28.0407 37.2085 28.2352 36.393C28.2777 36.2275 28.3282 36.0644 28.3867 35.9042C28.6096 34.8175 29.0479 33.7907 29.674 32.8891C30.3 31.9874 31.1 31.2306 32.0231 30.6667C32.7957 30.286 33.6425 30.0949 34.4979 30.1081C35.3944 30.1355 36.2719 30.3823 37.0589 30.8283C37.8459 31.2742 38.5202 31.9068 39.0266 32.6744C39.8825 33.9752 40.3669 35.5002 40.4239 37.0739C40.5008 38.0609 40.3466 39.0526 39.9743 39.9645C39.602 40.8764 39.0228 41.6816 38.2858 42.3113C37.3751 43.0645 36.263 43.5087 35.1003 43.5837C33.9377 43.6587 32.7811 43.3607 31.7874 42.7303C31.6244 42.6287 31.485 42.4911 31.379 42.3273C31.273 42.1636 31.2031 41.9776 31.1742 41.7827C31.1453 41.5877 31.1581 41.3886 31.2117 41.1994C31.2653 41.0101 31.3584 40.8354 31.4844 40.6877C31.8607 40.3303 32.306 40.0599 32.7906 39.8944C33.2753 39.7288 33.7884 39.672 34.2959 39.7275H34.6157C36.6865 39.7275 37.0232 37.7198 36.5181 35.9915C36.4316 35.6297 36.2771 35.2892 36.0633 34.9896C35.8495 34.69 35.5807 34.4372 35.2723 34.2457C35.0141 34.0992 34.7249 34.0212 34.4305 34.0187" fill="#275C35"/>
<path d="M44.0921 32.5558C44.3957 32.4709 44.7158 32.4652 45.0222 32.5392C45.3287 32.6132 45.6113 32.7645 45.8436 32.9788C46.1279 33.2399 46.3342 33.5757 46.4391 33.9484C47.122 36.2746 47.4988 38.6809 47.5601 41.1057C47.673 42.8534 47.3083 44.5989 46.5056 46.1527C45.7028 47.7066 44.4925 49.0095 43.0062 49.9201C41.7112 50.6689 40.303 51.199 38.8376 51.4891C38.5263 51.553 38.2043 51.5399 37.8992 51.4508C37.5941 51.3618 37.3151 51.1994 37.0861 50.9779C36.8045 50.6991 36.6097 50.3438 36.5256 49.9554C36.4552 49.6437 36.4632 49.3192 36.5488 49.0114C36.6345 48.7036 36.7951 48.4221 37.016 48.1925C37.2944 47.9074 37.6462 47.7059 38.0319 47.6108C39.7389 47.4092 41.3236 46.6179 42.5157 45.3719C43.3588 44.0923 43.7534 42.5661 43.6367 41.0352C43.5704 38.9521 43.2468 36.8854 42.6734 34.8828C42.5891 34.5772 42.5834 34.255 42.6569 33.9466C42.7305 33.6382 42.8808 33.3537 43.0937 33.1199C43.3671 32.841 43.7132 32.6454 44.0921 32.5558Z" fill="#275C35"/>
<path d="M61.2853 30.7457C60.9629 31.0758 60.7326 31.4855 60.6177 31.9336C60.5719 32.1924 60.6141 32.4593 60.7375 32.6911C61.0799 33.4658 61.7988 33.6723 62.4492 33.965C62.7164 34.0478 62.9645 34.1834 63.1791 34.3637C63.3936 34.544 63.5703 34.7654 63.6988 35.0152C64.1096 36.0825 63.6988 37.7352 63.0483 37.7524C62.1101 37.8006 61.172 37.6541 60.2924 37.322C59.4622 37.0535 58.7258 36.5518 58.1699 35.8759C57.6539 35.0522 57.3535 34.1106 57.2969 33.1387C57.2114 32.4239 57.2114 31.7014 57.2969 30.9867C57.4588 30.1238 57.8002 29.305 58.2988 28.5841C58.7973 27.8631 59.4417 27.2563 60.1898 26.8033C61.1203 26.3529 62.1614 26.1853 63.1853 26.3213C64.1468 26.3546 65.0862 26.6203 65.9241 27.096C66.5348 27.4324 67.0571 27.9105 67.4475 28.4904C67.8494 29.1119 68.1553 29.791 68.3547 30.5047C68.7796 32.0933 68.9926 33.7316 68.9881 35.3767V36.0997C69.0166 37.0235 68.8532 37.9431 68.5084 38.7998C68.1635 39.6565 67.6448 40.4314 66.9853 41.075C66.7401 41.3065 66.483 41.5249 66.215 41.7293C64.0009 43.0874 61.4261 43.7303 58.8375 43.5713C56.9914 43.6412 55.1441 43.4675 53.3428 43.0548C52.3382 42.7731 51.4238 42.2332 50.6896 41.4882C49.7195 40.3109 49.1816 38.8338 49.1662 37.3048C49.1662 36.9605 49.1662 36.5473 49.1662 36.0997C49.1662 31.3253 49.2347 27.0329 49.3716 23.2225C49.3674 22.9162 49.4444 22.6143 49.5949 22.348C49.7453 22.0817 49.9637 21.8606 50.2275 21.7075C50.5635 21.4882 50.9567 21.3744 51.3572 21.3804C51.6634 21.3779 51.9647 21.458 52.2296 21.6124C52.4946 21.7668 52.7135 21.9899 52.8635 22.2584C53.0793 22.591 53.1924 22.9803 53.1888 23.3774C53.0746 26.5795 53.0176 30.8203 53.0176 36.0997C52.9348 36.9572 53.0888 37.8209 53.4626 38.596C53.5227 38.6885 53.5915 38.775 53.668 38.8542C54.5703 39.4506 55.6364 39.7457 56.7149 39.6978H58.8717C60.5692 39.794 62.2623 39.4439 63.7844 38.6821L64.0069 38.5444C64.3137 38.3388 64.5733 38.0696 64.7681 37.7549C64.963 37.4401 65.0886 37.0871 65.1367 36.7195C65.1543 36.5018 65.1543 36.283 65.1367 36.0653C65.1367 33.7929 65.0168 30.1948 62.0384 30.1431C61.6947 30.2232 61.3909 30.4248 61.1826 30.7113" fill="#275C35"/>
<path d="M60.2682 20.8837C60.2671 20.5937 60.3386 20.3079 60.4763 20.0515C60.614 19.795 60.8137 19.5758 61.0579 19.4132C61.4061 19.1407 61.8393 18.9948 62.2843 19.0001C62.6383 18.9978 62.9854 19.0965 63.2836 19.2842C63.5818 19.4718 63.8183 19.7405 63.9644 20.0576C64.1272 20.3045 64.22 20.5897 64.2332 20.8837C64.2274 21.3654 64.0688 21.8333 63.7796 22.222C63.6052 22.4586 63.3749 22.65 63.1086 22.7795C62.8422 22.909 62.5478 22.9729 62.2507 22.9655C61.8497 22.9813 61.4548 22.8646 61.129 22.634C60.8032 22.4034 60.5653 22.0723 60.453 21.6933C60.3537 21.4339 60.297 21.1606 60.285 20.8837" fill="#275C35"/>
<path d="M30.602 45.4501C30.7365 45.5561 30.8352 45.6943 30.8867 45.8489C30.9382 46.0035 30.9405 46.1681 30.8933 46.3237C30.8559 46.4825 30.7744 46.63 30.6566 46.7523C29.9826 47.4092 29.1285 47.8926 28.1811 48.1535L27.3802 48.3183C26.9938 48.3677 26.6017 48.3677 26.2153 48.3183C25.9518 48.2945 25.6965 48.2223 25.4649 48.1061C25.2333 47.9899 25.0303 47.8321 24.8683 47.6425C24.7755 47.5179 24.6962 47.3854 24.6316 47.2469C24.6316 47.1315 24.5224 46.9831 24.6316 46.8842C24.6879 46.8244 24.7649 46.7837 24.8501 46.7688C25.833 46.4721 26.8887 46.604 27.8535 46.2743L28.1993 46.1424C28.5487 45.9657 28.8676 45.7436 29.1459 45.4831C29.2702 45.3555 29.4322 45.2628 29.6129 45.2161C29.7935 45.1693 29.9852 45.1705 30.1652 45.2193C30.3249 45.2641 30.4734 45.3369 30.602 45.4336" fill="#FFD400"/>
<path d="M108.144 62.5623V54.6577C108.144 54.5579 108.186 54.4636 108.19 54.3637C108.355 48.8592 109.508 43.3898 114.82 40.6495C115.902 40.0948 116.824 39.775 117.765 38.941C119.179 37.6874 119.975 35.9456 121.226 34.6365C122.913 32.8707 124.642 33.712 124.301 36.1157C123.963 38.4936 122.499 39.9987 121.168 41.8126C120.806 42.3063 120.402 42.898 120.33 43.5118C121.274 43.3547 122.143 42.8074 122.927 42.2933C125.815 40.4221 128.34 38.5102 129.893 35.3484C131.085 32.9206 132.068 30.3819 133.233 27.9523C133.742 26.8928 134.532 25.1048 135.982 25.3285C136.707 25.4413 136.369 26.6654 136.251 27.1258C135.896 28.4793 135.312 29.8993 134.883 31.2584C134.232 33.3126 133.688 35.5629 132.959 37.5635C132.35 39.2276 131.252 40.7291 130.361 42.2526C129.355 43.9611 128.715 45.5809 127.182 46.9251C125.65 48.2694 123.736 49.3529 122.061 50.5548C119.706 52.2429 118.732 53.0491 118.483 56.1018C118.383 57.3111 118.298 59.0011 118.439 60.1919C118.439 60.2492 118.416 60.2677 118.498 60.2492C125.824 57.043 131.985 50.8728 134.271 43.1291C135.099 40.2606 135.425 37.2714 135.236 34.2926L136.462 30.4411C136.711 31.6275 136.876 32.8298 136.956 34.0393C137.776 47.8182 128.249 59.5817 115.201 63.2317C98.2534 67.9726 79.5731 55.8004 78.0886 38.1719C77.8659 35.5314 78.0886 33.1481 78.4727 30.5483C78.482 30.491 78.4968 30.4078 78.558 30.4836C78.6221 30.7962 78.7038 31.1048 78.803 31.4081C79.0201 32.1126 79.7011 33.7823 79.7475 34.3924C79.7697 34.6975 79.6751 35.1672 79.6677 35.4852C79.6371 37.9567 79.9582 40.4201 80.6215 42.8018C82.8482 50.7526 89.0812 56.9931 96.537 60.3028C96.5667 60.2825 96.5834 60.1808 96.5834 60.1475C96.5834 58.1653 96.769 54.826 95.7205 53.1064C94.5404 51.1631 90.4562 49.0145 88.5245 47.539C86.3219 45.8564 85.7634 44.331 84.4218 42.04C83.5403 40.5331 82.5383 39.1518 81.9352 37.4896C81.2505 35.611 80.7644 33.5234 80.152 31.5986C79.6974 30.1711 79.0869 28.6771 78.6991 27.2534C78.4764 26.4398 78.1424 25.0586 79.51 25.3378C80.7254 25.5837 81.4676 27.4346 81.9427 28.4497C83.069 30.8534 84.0469 33.4421 85.2623 35.7922C86.68 38.5361 88.9736 40.2409 91.4823 41.9087C91.9537 42.2212 92.4435 42.567 92.9371 42.8425C93.4604 43.1365 94.0672 43.4582 94.6758 43.4749C94.3214 42.1805 93.3064 41.256 92.5456 40.2076C91.5399 38.819 90.2502 36.4781 90.7457 34.7234C91.2096 33.0759 92.8666 33.6991 93.7573 34.6125C94.995 35.8846 95.7706 37.6116 97.1549 38.8541C98.6617 40.2021 100.727 40.6255 102.308 42.0252C108.084 47.147 106.715 55.6525 106.904 62.5623H108.144Z" fill="#275C35"/>
<path d="M133.493 22.3886C132.801 22.2407 132.155 22.5735 131.599 22.9433C131.088 23.2897 130.613 23.6861 130.181 24.1267C130.021 24.2986 129.784 24.698 129.624 24.8108C129.465 24.9236 129.223 24.968 129.068 25.0567C128.431 25.4043 127.67 26.2142 127.193 26.7689C125.702 28.5149 124.731 30.642 124.39 32.9095C123.862 32.6153 123.259 32.4816 122.656 32.5249C122.174 32.5656 121.742 32.8023 121.311 32.9946C122.441 30.1414 124.109 27.5308 126.227 25.3045C127.668 23.8253 129.153 22.8287 130.866 21.7063C130.919 21.6712 131.12 21.575 131.099 21.5214C131.064 21.4179 130.914 21.5214 130.856 21.5343C130.442 21.7059 130.037 21.9004 129.645 22.1168C124.677 24.7054 120.899 29.23 118.999 34.472C118.585 35.6147 118.546 36.3506 117.7 37.3065C116.47 38.6896 115.464 38.9614 113.931 39.8119C111.233 41.3059 109.218 43.8354 108.155 46.7088C107.969 47.2099 107.86 47.7516 107.68 48.2379C107.659 48.2916 107.671 48.3674 107.589 48.3822C107.544 48.103 107.455 47.8275 107.424 47.5464C107.285 46.3187 107.81 44.4789 108.177 43.2789C110.853 34.52 118.901 25.3637 127.459 21.9356C128.498 21.5195 129.567 21.1608 130.634 20.8262L130.591 20.7171C130.532 20.6782 129.428 20.963 129.257 21.0074C124.969 22.1316 120.721 24.4003 117.214 27.0703C111.803 31.1807 107.533 36.6076 104.574 42.7094L103.334 41.3873C102.083 40.0616 100.3 39.5568 98.8268 38.6378C98.3417 38.3213 97.8957 37.9489 97.4982 37.5284C100.68 34.1858 104.228 31.2088 108.075 28.6531C113.827 24.8718 120.61 21.9282 127.414 20.6579C128.272 20.497 129.27 20.4194 130.096 20.2197C130.168 20.2012 130.22 20.2604 130.2 20.1328C117.448 21.1849 105.403 27.0833 96.0174 35.5536L95.0989 34.3425C94.6201 33.8082 94.1228 33.2701 93.4752 32.9354C98.1638 29.1206 103.413 26.0462 109.038 23.8197C114.108 21.8006 119.483 20.6542 124.92 20.1328C126.496 19.9812 128.223 19.8055 129.795 19.7482C129.847 19.7524 129.898 19.7675 129.943 19.7926C129.975 19.7593 129.661 19.3469 129.619 19.2859C123.059 10.1462 110.729 6.28359 99.929 9.33263C94.4958 10.8673 88.3333 14.7817 85.1881 19.5245C85.1491 19.5836 85.0823 19.6298 85.0934 19.7094C85.9563 19.7094 86.821 19.7667 87.6802 19.8369C92.7422 20.2511 98.0437 21.1738 102.816 22.9026C103.592 23.1837 104.984 23.6607 105.646 24.086C105.687 24.1137 105.722 24.086 105.7 24.1803L104.401 24.6869C99.9197 22.3294 94.8966 21.1719 89.8865 20.5211L93.3156 21.2607C96.9044 22.1482 100.48 23.2336 103.737 24.9976C103.757 25.1085 103.722 25.0641 103.677 25.0863C103.134 25.3618 102.564 25.6059 102.007 25.85C97.8603 23.467 93.3205 21.8391 88.6005 21.0425L91.6586 21.9356C95.0079 23.0228 98.3183 24.3134 101.298 26.1976L101.228 26.3178L99.055 27.503C95.3178 24.8922 91.2411 22.5495 86.7635 21.4696L90.497 23.0505C93.2704 24.3697 95.8597 26.0429 98.1996 28.0281L95.2121 29.9825C92.5474 26.547 89.1869 23.4518 85.0062 21.98L87.4556 23.4777C90.1632 25.419 92.4871 27.8426 94.3102 30.626C94.3269 30.6778 94.2731 30.7036 94.2416 30.7351C93.9744 31.0069 93.542 31.2694 93.2377 31.5228C92.9723 31.7465 92.3711 32.3678 92.1243 32.4972C91.8775 32.6266 91.2299 32.6063 90.7809 32.8189C90.6937 32.8615 90.5953 33.0131 90.5693 32.8652C90.2242 30.258 88.4131 26.6229 86.1159 25.1991C85.9303 25.0808 85.511 24.9291 85.3903 24.8145C85.0563 24.4983 84.7928 23.988 84.3679 23.6182C83.6368 22.9877 82.4548 22.261 81.4583 22.383C82.4727 20.4213 83.7139 18.5844 85.1565 16.9099C96.9526 3.2512 118.73 3.27708 130.198 17.3167C131.493 18.872 132.599 20.5745 133.493 22.3886Z" fill="#6C9B2F"/>
<path d="M84.8003 31.7613L84.5201 26.2142C84.8578 25.7335 85.5295 26.1698 85.819 26.4953C87.3202 28.1594 86.8656 32.6192 87.2014 34.79C87.4018 36.0936 87.927 37.3176 88.3315 38.562C88.3773 38.6738 88.403 38.7927 88.4076 38.9133C87.7154 38.1219 86.9101 37.3971 86.2978 36.541C85.9093 35.9523 85.5751 35.3297 85.2994 34.6809C84.0933 32.1256 83.0263 29.267 81.6383 26.8281C81.2672 26.1791 80.9852 26.046 80.9443 25.2176C80.9165 24.6629 80.9814 23.6348 81.6977 23.5368C82.863 23.3797 83.5979 25.2305 83.8409 26.1255C84.3512 27.9967 84.0506 29.9548 84.7947 31.7576" fill="#275C35"/>
<path d="M126.57 38.8763C126.952 37.4655 127.552 36.1194 127.797 34.6661C128.041 33.2128 127.91 31.6263 128.067 30.1212C128.179 29.0377 128.531 26.2383 129.893 26.0201C130.409 25.9406 130.476 26.242 130.463 26.6728C130.424 27.8377 130.177 29.0636 130.248 30.2506C130.196 30.7221 130.175 31.1955 130.131 31.667C130.131 31.7151 130.081 31.8131 130.161 31.8038C130.33 31.3041 130.468 30.7947 130.576 30.2784C130.78 29.1431 130.73 27.9652 130.947 26.8189C131.133 25.8943 131.818 23.6496 132.957 23.5387C133.966 23.4425 134.015 24.6832 133.965 25.3877C133.918 26.0534 133.573 26.3658 133.271 26.9132C131.99 29.2411 131.01 31.8057 129.866 34.2131C129.483 35.0156 129.123 35.8569 128.611 36.5835C128.019 37.4156 127.257 38.1219 126.57 38.8708" fill="#275C35"/>
<path d="M127.674 29.8087C127.739 29.9141 127.609 30.6241 127.596 30.8035C127.474 32.586 127.596 34.1835 127.156 35.9456C126.971 36.6742 126.295 39.1149 125.887 39.6104C125.613 39.8709 125.317 40.1072 125.002 40.3167C124.911 40.3796 124.224 40.84 124.176 40.7919C124.833 39.1149 125.123 37.3065 125.368 35.5259C125.553 34.1484 125.629 30.4189 127.114 29.8106C127.242 29.7588 127.589 29.6719 127.67 29.8106" fill="#275C35"/>
<path d="M90.7846 40.7938C90.4398 40.6137 90.107 40.4117 89.7881 40.1891C89.2073 39.7768 89.0459 39.6585 88.775 38.9836C88.3327 37.842 87.9821 36.6673 87.7266 35.4704C87.4278 33.9764 87.541 32.4861 87.4074 30.9755C87.3888 30.7739 87.2218 29.9086 87.2998 29.8013C87.4111 29.6349 87.8565 29.8013 87.9938 29.8808C89.4281 30.7536 89.456 34.3684 89.6805 35.9105C89.9199 37.5746 90.2242 39.2184 90.7846 40.7956" fill="#275C35"/>
<path d="M106.383 10.6695C106.446 11.6901 106.292 12.8236 106.383 13.8313C106.452 14.6172 107.641 14.7281 107.815 13.9404C107.765 12.9087 107.903 11.7789 107.815 10.7582C107.776 10.2812 107.377 10.0649 106.927 10.1296C106.792 10.1583 106.669 10.2243 106.57 10.3198C106.472 10.4153 106.402 10.5365 106.37 10.6695" fill="#FFD400"/>
<path d="M110.855 14.9204C110.748 15.0617 110.696 15.2369 110.71 15.4133C110.723 15.5897 110.8 15.7553 110.927 15.8791C111.054 16.0029 111.221 16.0766 111.399 16.0863C111.576 16.096 111.751 16.0411 111.89 15.9318C112.339 15.464 112.818 15.0073 113.262 14.5469C113.469 14.3324 114.149 13.676 114.219 13.4467C114.266 13.3237 114.279 13.19 114.256 13.0603C114.232 12.9306 114.174 12.8097 114.087 12.7107C113.999 12.6117 113.886 12.5384 113.76 12.4986C113.634 12.4589 113.5 12.4542 113.371 12.4852C113.238 12.5211 113.116 12.5905 113.017 12.6868C112.699 12.9567 112.358 13.3876 112.055 13.6926C111.684 14.0717 111.163 14.5081 110.855 14.9204Z" fill="#FFD400"/>
<path d="M106.947 23.1282C107.003 23.1209 107.057 23.104 107.106 23.0783C107.424 22.9525 107.789 22.7085 108.11 22.5532C109.287 21.9909 110.507 21.5228 111.758 21.1534C111.79 21.0064 111.798 20.8555 111.783 20.706C111.699 18.7479 110.584 16.958 108.738 16.2461C107.8 15.8943 106.773 15.8598 105.814 16.1478C104.855 16.4359 104.018 17.0306 103.432 17.84C102.726 18.8193 102.374 20.0081 102.432 21.2126C103.694 21.5748 104.917 22.0571 106.086 22.653C106.232 22.7307 106.854 23.1282 106.952 23.1282" fill="#FFD400"/>
<path d="M99.4373 18.4631C99.0996 18.4539 98.7656 18.4409 98.426 18.4465C98.0777 18.4325 97.7288 18.4393 97.3813 18.4668C97.237 18.5202 97.1091 18.6101 97.0102 18.7275C96.9418 18.823 96.8971 18.9334 96.88 19.0495C96.8628 19.1656 96.8737 19.2841 96.9115 19.3952C96.9494 19.5063 97.0133 19.6068 97.0979 19.6884C97.1825 19.7701 97.2853 19.8305 97.398 19.8647C98.2553 19.8647 99.2258 19.9608 100.079 19.8943C100.636 19.8499 100.894 19.4172 100.734 18.8958C100.562 18.3318 99.8826 18.4742 99.4354 18.4631" fill="#FFD400"/>
<path d="M114.024 18.3984C113.282 18.4927 113.243 19.6188 113.959 19.7907H116.867C117.643 19.5115 117.485 18.4465 116.637 18.3818C115.789 18.317 114.872 18.4261 114.024 18.3818" fill="#FFD400"/>
<path d="M103.414 14.8945C102.681 14.2196 102.018 13.3265 101.282 12.6757C101.189 12.5903 101.076 12.5289 100.954 12.4967C100.832 12.4645 100.704 12.4624 100.58 12.4908C100.077 12.5684 99.8529 13.2729 100.168 13.652C100.875 14.3435 101.512 15.1312 102.232 15.8005C103.076 16.5956 103.972 15.6156 103.414 14.9" fill="#FFD400"/>
<path d="M108.769 1.61112C108.725 1.6119 108.681 1.60502 108.639 1.59078C108.543 1.57229 108.454 1.5427 108.352 1.53346C108.283 1.53346 108.214 1.53346 108.148 1.53346C107.936 1.53064 107.728 1.59329 107.553 1.71282C107.378 1.83234 107.245 2.00286 107.171 2.20095C107.147 2.27307 107.118 2.34703 107.088 2.41359C107.047 2.5394 107.021 2.66982 107.012 2.80189C107.022 2.90827 107.022 3.01538 107.012 3.12177C106.995 3.22347 107.012 3.35475 106.997 3.45459C106.982 3.55444 107.029 3.71161 106.967 3.78557C106.967 3.78557 106.953 3.79666 106.953 3.80036C106.943 4.03058 106.879 4.25535 106.767 4.45676C106.659 4.64167 106.5 4.72117 106.396 4.90608C106.353 4.97921 106.315 5.0552 106.283 5.13351C106.243 5.29681 106.25 5.46813 106.305 5.6272C106.361 5.79915 106.199 5.92489 106.155 6.05617C106.138 6.15602 106.236 6.15232 106.309 6.15047C106.708 6.15047 107.051 5.71595 107.06 5.34245V5.18343C107.069 5.07046 107.053 4.95693 107.014 4.85061C106.967 4.74336 107.014 4.70083 107.071 4.60469C107.085 4.57683 107.096 4.54773 107.105 4.51778C107.115 4.52713 107.122 4.53873 107.127 4.5516C107.131 4.56448 107.133 4.57824 107.131 4.59174C107.174 4.75935 107.2 4.93098 107.209 5.10392C107.213 5.15682 107.213 5.21004 107.209 5.26294C107.209 5.35539 107.199 5.44784 107.196 5.53844L107.205 5.91379C107.261 6.36496 107.261 6.83831 107.301 7.28207C107.116 7.27098 106.617 7.18592 106.652 7.49841C106.687 7.81089 107.058 7.70365 107.311 7.73323C107.563 7.76282 107.923 7.75172 108.196 7.77206C108.469 7.7924 108.784 7.7961 109.068 7.81274C109.352 7.82938 109.651 7.83678 109.94 7.85157L110.825 7.89225L111.697 7.93108C111.989 7.94587 112.276 7.95512 112.569 7.97176C112.863 7.9884 113.163 7.99395 113.455 8.01059C113.746 8.02723 114.035 8.02723 114.327 8.05126C114.383 8.05864 114.44 8.04413 114.486 8.01075C114.532 7.97736 114.563 7.92767 114.573 7.87198C114.583 7.8163 114.571 7.7589 114.54 7.71172C114.508 7.66453 114.46 7.63118 114.405 7.61859C114.011 7.55203 113.583 7.61859 113.2 7.55018C113.181 7.55203 113.161 7.55203 113.141 7.55018C113.074 7.52614 113.121 7.39486 113.093 7.33015C113.065 7.26543 113.093 7.13415 113.093 7.05464C113.091 6.96603 113.105 6.87778 113.134 6.79393C113.162 6.67665 113.201 6.56217 113.25 6.45186C113.299 6.34277 113.332 6.23368 113.388 6.12828C113.443 6.02289 113.432 5.86757 113.486 5.75848C113.54 5.64938 113.648 5.64938 113.703 5.57357C113.759 5.49776 113.85 5.42935 113.904 5.34984C113.957 5.27033 114.028 5.18343 114.089 5.10762C114.195 4.92692 114.269 4.72919 114.306 4.52333C114.317 4.46 114.334 4.398 114.358 4.33843C114.371 4.26196 114.379 4.18477 114.382 4.1073C114.382 4.0056 114.382 3.90575 114.397 3.80406C114.401 3.65327 114.393 3.50239 114.373 3.3529C114.358 3.19388 114.34 3.03302 114.338 2.87215C114.329 2.79503 114.332 2.71691 114.349 2.64102C114.371 2.40435 114.481 2.18801 114.525 1.95319C114.541 1.89282 114.548 1.83063 114.548 1.76828C114.573 1.79972 114.629 1.76828 114.65 1.80157C114.726 1.80157 114.804 1.80157 114.882 1.80157C114.959 1.80157 115.019 1.77568 115.086 1.76828C115.166 1.75715 115.244 1.72997 115.314 1.68837C115.384 1.64677 115.446 1.59157 115.494 1.52606C115.583 1.36704 115.364 1.20248 115.279 1.10818C115.415 1.04303 115.532 0.944311 115.62 0.821363C115.707 0.698416 115.761 0.555302 115.778 0.405553C115.778 0.344535 115.802 0.24099 115.743 0.202161C115.537 0.135596 115.548 0.387063 115.42 0.501702C115.308 0.618684 115.164 0.70034 115.006 0.736528C114.809 0.761438 114.61 0.761438 114.414 0.736528C114.386 0.620881 114.319 0.518194 114.225 0.445296C114.13 0.372397 114.014 0.333611 113.894 0.335291C113.998 0.10971 113.664 0.0967663 113.523 0.228047C113.382 0.359328 113.095 0.250235 112.929 0.309404C112.847 0.333856 112.772 0.377957 112.71 0.437884C112.649 0.497811 112.603 0.571759 112.577 0.653322C112.421 0.659079 112.265 0.651656 112.111 0.631134C111.977 0.613264 111.847 0.571953 111.727 0.509099C111.629 0.444 111.547 0.358132 111.486 0.257631C111.425 0.168878 111.406 -0.0437592 111.263 0.00801346C111.12 0.0597861 111.191 0.290913 111.209 0.398157C111.241 0.516392 111.295 0.627481 111.369 0.725434C111.438 0.820796 111.528 0.900232 111.63 0.958411C111.541 1.05271 111.324 1.20248 111.412 1.3652C111.496 1.50117 111.628 1.60123 111.783 1.64625C111.964 1.71245 112.16 1.72654 112.349 1.68693C112.334 1.89587 112.098 1.91805 111.914 1.97168C111.711 2.01675 111.503 2.03969 111.295 2.04009C111.063 2.0402 110.832 2.02662 110.602 1.99941C110.389 1.98462 110.159 1.93285 109.953 1.89771C109.747 1.86258 109.547 1.81821 109.346 1.76828C109.146 1.71836 108.955 1.67583 108.756 1.62591M114.093 2.36552C114.093 2.42284 114.093 2.48201 114.093 2.53933C114.093 2.72423 114.182 2.90913 114.093 3.07924C114.056 3.15445 113.994 3.21482 113.918 3.25044C113.841 3.28605 113.755 3.2948 113.674 3.27524C113.638 3.21067 113.583 3.15909 113.516 3.12812C113.45 3.09715 113.375 3.08844 113.302 3.10328C113.161 3.12177 113.067 3.28818 112.931 3.22901C112.796 3.16984 112.679 3.12362 112.655 2.9646C112.653 2.80557 112.68 2.64753 112.736 2.49865C112.765 2.34286 112.756 2.18254 112.71 2.03084C112.675 1.90326 112.556 1.70357 112.725 1.66104C112.725 1.70172 112.749 1.76089 112.794 1.76643C112.839 1.77198 112.918 1.74979 112.968 1.78862C112.968 1.77383 112.968 1.74794 112.983 1.7461C112.983 1.56119 112.842 1.35965 112.634 1.43916C112.604 1.33736 112.598 1.23004 112.617 1.12554C112.635 1.02105 112.678 0.922199 112.741 0.836683C112.804 0.751168 112.886 0.681293 112.98 0.632493C113.075 0.583694 113.179 0.557286 113.286 0.555324C113.286 0.666266 113.31 0.81049 113.193 0.895545C113.076 0.9806 113.148 1.13777 113.278 1.0638C113.377 1.01449 113.454 0.929108 113.492 0.825282C113.546 0.926013 113.636 1.00266 113.744 1.03977C113.872 1.09524 114.034 0.973204 113.887 0.897394C113.74 0.821584 113.75 0.712491 113.722 0.590455C114.178 0.590455 114.447 1.12113 114.304 1.51497C114.067 1.40403 113.918 1.65734 113.933 1.86074C113.985 1.80896 114.078 1.86073 114.134 1.8367C114.189 1.81266 114.186 1.70542 114.275 1.7461C114.275 1.96613 114.124 2.13254 114.115 2.34703M109.808 5.64569C109.862 5.65875 109.915 5.67607 109.966 5.69746C110.135 5.7495 110.309 5.78176 110.486 5.79361C110.686 5.80285 110.883 5.81025 111.081 5.80655C111.196 5.80655 111.306 5.77327 111.419 5.76402C111.495 6.15047 111.682 6.50363 111.716 6.90857C111.729 7.00481 111.724 7.10258 111.701 7.19702C111.692 7.27837 111.664 7.35788 111.662 7.44294C111.664 7.45705 111.664 7.47135 111.662 7.48546C111.632 7.53909 111.476 7.48546 111.399 7.48546C111.321 7.48546 111.194 7.47067 111.109 7.47067C111.024 7.47067 110.912 7.47067 110.818 7.45773C110.723 7.44479 110.632 7.45773 110.528 7.44479C110.431 7.44581 110.334 7.44149 110.237 7.43184C110.126 7.40965 110.077 7.46328 109.947 7.4189C109.818 7.37452 109.489 7.47807 109.426 7.33754C109.393 7.25988 109.357 7.17853 109.32 7.10087C109.259 6.96145 109.222 6.81262 109.211 6.6608C109.18 6.52195 109.18 6.37807 109.211 6.23922C109.234 6.16405 109.252 6.08746 109.265 6.00994C109.265 5.93598 109.337 5.85093 109.333 5.78066C109.33 5.7104 109.118 5.64384 109.079 5.61055C108.992 5.55508 108.858 5.41086 108.775 5.50516C108.691 5.59946 108.559 5.72704 108.472 5.60686C108.385 5.48667 108.55 5.3406 108.643 5.29992C108.584 5.19411 108.516 5.09385 108.439 5.00038C108.355 4.88759 108.402 4.7674 108.483 4.65461C108.8 5.12321 109.266 5.47124 109.806 5.64199M108.842 7.30611C108.842 7.32275 108.884 7.3283 108.882 7.35233C108.708 7.36711 108.533 7.36711 108.359 7.35233C108.203 7.33015 107.966 7.39856 107.899 7.25803V7.24509C107.825 7.12154 107.79 6.97825 107.801 6.83461C107.825 6.33352 108.029 5.93228 108.172 5.47188C108.289 5.47188 108.218 5.6124 108.253 5.69006C108.259 5.70807 108.269 5.72463 108.282 5.73876C108.295 5.75288 108.31 5.76426 108.328 5.77221C108.345 5.78017 108.364 5.78453 108.383 5.78503C108.402 5.78552 108.421 5.78215 108.439 5.77512C108.525 6.29918 108.657 6.81462 108.834 7.31535M112.219 7.13045C112.2 7.01879 112.211 6.90432 112.248 6.79763C112.293 6.61273 112.365 6.42782 112.397 6.22998C112.428 6.03213 112.501 6.16711 112.492 6.27251C112.498 6.37355 112.509 6.47418 112.527 6.5739C112.527 6.67744 112.568 6.7588 112.566 6.87159C112.576 6.9823 112.576 7.09371 112.566 7.20441C112.545 7.31166 112.534 7.41335 112.521 7.52244L112.274 7.5095C112.261 7.38377 112.234 7.25803 112.219 7.13045Z" fill="#6C9B2F"/>
<path d="M115.783 0.405548C115.794 0.340832 115.833 0.246532 115.748 0.200306C115.807 0.240985 115.787 0.34453 115.783 0.405548Z" fill="#6C9B2F"/>
<path d="M114.874 1.81451C114.944 1.81411 115.014 1.80289 115.08 1.78123C115.011 1.78123 114.935 1.80896 114.874 1.81451Z" fill="#6C9B2F"/>
<path d="M112.794 1.77938C112.84 1.8219 112.937 1.77938 112.979 1.83115C112.979 1.80711 112.979 1.78307 112.979 1.75904C112.979 1.735 112.966 1.78677 112.965 1.80156C112.915 1.76274 112.844 1.80156 112.79 1.77938" fill="#6C9B2F"/>
<path d="M108.769 1.61112C108.724 1.59997 108.686 1.59821 108.639 1.59078C108.681 1.60502 108.725 1.6119 108.769 1.61112Z" fill="#6C9B2F"/>
<path d="M107.088 2.40065C107.118 2.33408 107.147 2.26012 107.171 2.18801C107.137 2.25625 107.109 2.32742 107.088 2.40065Z" fill="#6C9B2F"/>
<path d="M113.104 2.64842C112.918 2.61329 112.907 2.91653 113.091 2.93872C113.275 2.9609 113.267 2.67985 113.104 2.64842Z" fill="#6C9B2F"/>
<path d="M113.802 2.67985C113.642 2.63178 113.503 2.88509 113.662 2.95905C113.822 3.03301 113.957 2.72793 113.802 2.67985Z" fill="#6C9B2F"/>
<path d="M107.01 2.84996C107.016 3.15873 107.002 3.46757 106.967 3.77447C107.029 3.70051 106.967 3.54149 106.997 3.44349C107.027 3.3455 106.997 3.21237 107.012 3.11067C107.022 3.00429 107.022 2.89717 107.012 2.79079C107.012 2.80928 107.012 2.82962 107.012 2.84811" fill="#6C9B2F"/>
<path d="M114.299 4.53169C114.314 4.47407 114.34 4.41087 114.351 4.34582C114.327 4.40571 114.309 4.46803 114.299 4.53169Z" fill="#6C9B2F"/>
<path d="M113.484 5.76956C113.514 5.76956 113.536 5.74553 113.56 5.72889C113.636 5.66602 113.714 5.58836 113.787 5.52179C113.906 5.40218 114.005 5.26496 114.082 5.11501C114.026 5.19082 113.954 5.27957 113.896 5.35723C113.839 5.43489 113.75 5.49961 113.696 5.58096C113.642 5.66232 113.521 5.6919 113.479 5.76587" fill="#6C9B2F"/>
<path d="M106.294 5.12426C106.324 5.0461 106.36 4.97012 106.401 4.89683C106.345 4.96188 106.306 5.04013 106.288 5.12426" fill="#6C9B2F"/>
<path d="M107.22 5.25452H107.235C107.24 5.20135 107.24 5.14785 107.235 5.09468C107.235 5.14672 107.235 5.20248 107.235 5.25452" fill="#6C9B2F"/>
<path d="M107.205 5.91379L107.222 5.52365H107.207C107.207 5.65308 107.207 5.79361 107.207 5.91379" fill="#6C9B2F"/>
<path d="M109.335 5.78436C109.335 5.6993 109.15 5.65677 109.081 5.61425C109.12 5.64753 109.324 5.72889 109.335 5.78436Z" fill="#6C9B2F"/>
<path d="M109.209 6.6645C109.192 6.52447 109.192 6.38296 109.209 6.24292C109.178 6.38177 109.178 6.52565 109.209 6.6645Z" fill="#6C9B2F"/>
<path d="M113.141 7.55203C113.141 7.44109 113.102 7.34124 113.098 7.23215C113.092 7.08649 113.103 6.94056 113.132 6.79763C113.102 6.88125 113.088 6.96966 113.091 7.05834C113.091 7.13785 113.065 7.26913 113.091 7.33384C113.117 7.39856 113.072 7.52984 113.139 7.55203" fill="#6C9B2F"/>
<path d="M112.228 7.13415C112.225 7.02243 112.235 6.91073 112.258 6.80133C112.22 6.90802 112.21 7.02249 112.228 7.13415Z" fill="#6C9B2F"/>
<path d="M111.716 6.90857C111.729 7.00481 111.724 7.10258 111.701 7.19702C111.713 7.10139 111.718 7.00495 111.716 6.90857Z" fill="#6C9B2F"/>
<path d="M107.901 7.24325C107.884 7.10642 107.813 6.96774 107.802 6.83276C107.792 6.9764 107.826 7.11969 107.901 7.24325Z" fill="#6C9B2F"/>
<path d="M108.843 7.3135C108.843 7.33014 108.864 7.33939 108.856 7.35788C108.721 7.33384 108.472 7.35788 108.348 7.33569C108.224 7.3135 107.93 7.38746 107.901 7.25618C107.968 7.39671 108.205 7.32829 108.361 7.35048C108.535 7.36525 108.71 7.36525 108.884 7.35048C108.884 7.32644 108.853 7.3209 108.843 7.30425" fill="#6C9B2F"/>
<path d="M111.66 7.48547C111.508 7.48547 111.345 7.47437 111.194 7.46513C111.044 7.45588 110.892 7.45403 110.744 7.44479C110.595 7.43554 110.422 7.44479 110.28 7.4226C110.137 7.40041 109.959 7.4226 109.829 7.40226C109.699 7.38192 109.493 7.44849 109.424 7.34124C109.487 7.48177 109.814 7.37822 109.946 7.4226C110.077 7.46698 110.131 7.4226 110.235 7.43554C110.332 7.44519 110.429 7.44951 110.526 7.44849C110.627 7.45958 110.712 7.44849 110.816 7.46143C110.92 7.47437 111.02 7.47622 111.107 7.47437C111.194 7.47252 111.326 7.49841 111.397 7.48916C111.467 7.47992 111.63 7.53909 111.66 7.48916" fill="#6C9B2F"/>
<path d="M114.405 7.62414C114.208 7.59347 114.008 7.57986 113.809 7.58346C113.612 7.56497 113.399 7.56497 113.2 7.55572C113.583 7.62599 114.011 7.55572 114.405 7.62414Z" fill="#6C9B2F"/>
<path d="M120.183 5.79731C120.166 5.77142 120.122 5.79731 120.12 5.75848C120.118 5.71965 120.146 5.7067 120.172 5.69376C120.209 5.67859 120.24 5.653 120.263 5.62014C120.285 5.58728 120.297 5.54859 120.298 5.50886C120.298 5.46448 120.328 5.44784 120.365 5.4386C120.443 5.42195 120.515 5.37758 120.6 5.40346C120.627 5.40487 120.652 5.39842 120.675 5.38497C121.004 5.22129 121.363 5.12688 121.731 5.10762C121.731 5.10762 121.74 5.10762 121.76 5.08913L121.335 4.89313C121.265 4.85985 121.196 4.82472 121.127 4.78774C121.059 4.75076 121.048 4.73782 121.055 4.68419C121.06 4.6602 121.071 4.63809 121.088 4.62066C121.106 4.60322 121.128 4.59123 121.152 4.5862C121.263 4.55085 121.38 4.53827 121.497 4.54922C121.74 4.58786 121.976 4.662 122.198 4.76925C122.547 4.91532 122.89 5.07804 123.224 5.25739C123.538 5.41476 123.824 5.62001 124.074 5.86572C124.235 6.02715 124.331 6.24144 124.345 6.4685C124.365 6.69042 124.372 6.91329 124.366 7.136C124.361 7.16253 124.366 7.18969 124.379 7.21315C124.392 7.23661 124.413 7.25501 124.438 7.26543C124.508 7.30241 124.577 7.34679 124.661 7.38932C124.551 7.30611 124.625 7.2377 124.661 7.16928C125.247 6.1967 125.833 5.22411 126.42 4.25152C126.463 4.19076 126.492 4.12019 126.502 4.04604C126.512 3.97188 126.503 3.8964 126.477 3.82625C126.44 3.73195 126.522 3.72825 126.57 3.70421C126.618 3.68017 126.674 3.67648 126.704 3.74859C126.742 3.84809 126.759 3.95482 126.753 4.06143C126.747 4.16804 126.717 4.272 126.666 4.36616C126.64 4.42163 126.607 4.4734 126.576 4.52703L125.076 7.02321C125.042 7.07444 125.027 7.1359 125.034 7.19702C125.044 7.30651 125.034 7.41704 125.002 7.52244C125.002 7.55388 124.978 7.58531 125.022 7.6112C125.303 7.77576 125.579 7.94402 125.869 8.11598C125.88 8.05117 125.877 7.9848 125.86 7.92111C125.844 7.85743 125.815 7.79784 125.774 7.74618C125.758 7.72859 125.75 7.70589 125.75 7.68239C125.75 7.65888 125.758 7.63618 125.774 7.61859C125.865 7.47622 125.959 7.33015 126.037 7.18777C126.059 7.14131 126.09 7.09985 126.129 7.06603C126.168 7.0322 126.213 7.00674 126.262 6.99127C126.311 6.9758 126.363 6.97065 126.414 6.97614C126.465 6.98164 126.514 6.99767 126.559 7.02321C126.627 7.05279 126.692 7.08608 126.778 7.12491C126.763 7.06019 126.757 7.00657 126.741 6.95664C126.735 6.93797 126.726 6.9206 126.714 6.90561C126.701 6.89062 126.686 6.87833 126.668 6.86949C126.651 6.86065 126.632 6.85546 126.612 6.85423C126.593 6.853 126.573 6.85576 126.555 6.86234C126.456 6.89342 126.354 6.9163 126.251 6.93076C126.206 6.93076 126.145 6.9511 126.132 6.89932C126.119 6.84755 126.186 6.82536 126.227 6.81242C126.453 6.7477 126.683 6.68669 126.911 6.62752L127.468 6.48144C127.512 6.47003 127.557 6.46321 127.602 6.46111C127.639 6.46111 127.683 6.4611 127.694 6.51288C127.698 6.5324 127.694 6.55258 127.684 6.56961C127.674 6.58664 127.658 6.59934 127.639 6.60533C127.522 6.6571 127.401 6.70887 127.283 6.75695C127.205 6.78653 127.117 6.80133 127.097 6.90487C127.095 6.91273 127.091 6.91999 127.085 6.92608C127.08 6.93217 127.073 6.93693 127.065 6.94C126.954 6.96589 126.961 7.02876 127.006 7.11011C127.051 7.19147 126.984 7.19517 126.937 7.21181C126.937 7.24879 126.96 7.25249 126.976 7.26358C127.52 7.6001 128.06 7.94032 128.589 8.29904C128.648 8.33971 128.682 8.33786 128.713 8.26945C128.745 8.20104 128.828 8.11968 128.81 8.01429C128.811 8.00031 128.815 7.98683 128.823 7.97517C128.831 7.96351 128.842 7.95405 128.854 7.94772C128.918 7.90022 128.967 7.83628 128.997 7.76282L129.498 6.93076C129.517 6.90888 129.532 6.88337 129.541 6.85575C129.551 6.82812 129.554 6.79893 129.552 6.76989C129.552 6.74585 129.561 6.72921 129.582 6.71627C129.608 6.70025 129.637 6.69064 129.668 6.68822C129.699 6.68581 129.73 6.69066 129.758 6.70238C129.786 6.71411 129.812 6.73237 129.832 6.75567C129.852 6.77897 129.866 6.80666 129.873 6.83646C129.873 6.88268 129.873 6.93076 129.817 6.93815C129.762 6.94555 129.773 6.97328 129.758 6.99732L129.151 8.00319C129.132 8.02954 129.122 8.06124 129.121 8.09379C129.124 8.10839 129.121 8.12332 129.113 8.1361C129.106 8.14888 129.094 8.15874 129.081 8.16406C128.956 8.21583 128.936 8.34896 128.867 8.44141C128.838 8.48394 128.884 8.49688 128.908 8.51352L129.465 8.91106C129.81 9.15698 130.151 9.40845 130.472 9.68765C130.49 9.70787 130.514 9.72082 130.54 9.7239C130.567 9.72699 130.594 9.71998 130.615 9.70429C130.667 9.67471 130.717 9.62663 130.801 9.68026C130.916 9.76346 130.925 9.77455 130.842 9.89289C130.832 9.9019 130.824 9.91289 130.818 9.92515C130.813 9.93741 130.81 9.95067 130.81 9.96408C130.81 9.97749 130.813 9.99075 130.818 10.003C130.824 10.0153 130.832 10.0263 130.842 10.0353C130.936 10.1418 130.987 10.28 130.984 10.4222C130.981 10.5644 130.924 10.7002 130.825 10.8026C130.793 10.8377 130.775 10.8211 130.751 10.8026L130.565 10.6861C130.543 10.6713 130.521 10.651 130.5 10.6861C130.48 10.7213 130.5 10.7323 130.524 10.7471C130.548 10.7619 130.624 10.8082 130.669 10.8451C130.714 10.8821 130.775 10.8784 130.732 10.9413C130.689 11.0042 130.66 10.9302 130.628 10.9173C130.582 10.8932 130.538 10.8667 130.495 10.8377C130.478 10.8266 130.457 10.8026 130.439 10.8377C130.436 10.8426 130.434 10.848 130.433 10.8536C130.432 10.8592 130.432 10.8649 130.434 10.8705C130.435 10.876 130.438 10.8812 130.441 10.8857C130.445 10.8902 130.449 10.8941 130.454 10.8969L130.624 11.0097C130.652 11.0282 130.684 11.043 130.658 11.0837C130.632 11.1243 130.608 11.0837 130.585 11.0837C130.563 11.0837 130.504 11.03 130.461 11.0097C130.418 10.9894 130.409 10.9524 130.381 11.0097C130.354 11.067 130.402 11.0652 130.426 11.0818C130.45 11.0985 130.513 11.1373 130.558 11.165C130.602 11.1928 130.608 11.1946 130.585 11.2316C130.563 11.2686 130.539 11.2482 130.515 11.2316L130.374 11.1465C130.354 11.1354 130.333 11.1225 130.318 11.1465C130.315 11.1509 130.312 11.156 130.311 11.1616C130.309 11.1671 130.309 11.1728 130.311 11.1784C130.312 11.1839 130.314 11.1891 130.318 11.1935C130.322 11.1979 130.326 11.2015 130.331 11.2039L130.489 11.3C130.517 11.3166 130.524 11.3314 130.508 11.361C130.491 11.3906 130.472 11.3869 130.446 11.361C130.42 11.3351 130.359 11.3055 130.315 11.2797C130.27 11.2538 130.274 11.2519 130.257 11.2797C130.24 11.3074 130.257 11.3222 130.274 11.337C130.29 11.3518 130.361 11.3943 130.405 11.4183C130.45 11.4424 130.459 11.459 130.433 11.4941C130.407 11.5293 130.383 11.4941 130.361 11.4941C130.339 11.4941 130.296 11.4535 130.261 11.435C130.226 11.4165 130.218 11.3943 130.196 11.435C130.174 11.4757 130.196 11.4886 130.226 11.5052L130.333 11.5718C130.359 11.5884 130.381 11.6032 130.361 11.6402C130.341 11.6772 130.315 11.6587 130.29 11.6402L130.181 11.5755C130.166 11.5663 130.146 11.5552 130.131 11.5755C130.127 11.58 130.125 11.5852 130.124 11.5909C130.122 11.5965 130.122 11.6023 130.124 11.6079C130.125 11.6134 130.128 11.6186 130.132 11.6229C130.136 11.6272 130.14 11.6306 130.146 11.6328L130.194 11.6661C130.313 11.7419 130.316 11.7086 130.238 11.851C130.201 11.9231 130.118 11.9934 130.138 12.0636C130.159 12.1339 130.264 12.1542 130.324 12.1968C130.433 12.2652 130.547 12.3299 130.656 12.3983C130.676 12.407 130.694 12.4197 130.709 12.4358C130.724 12.4518 130.736 12.4708 130.743 12.4916C130.75 12.5123 130.753 12.5343 130.751 12.5561C130.749 12.5779 130.743 12.5991 130.732 12.6184C130.72 12.6356 130.704 12.6501 130.686 12.6611C130.669 12.6721 130.648 12.6792 130.628 12.6822C130.607 12.6851 130.585 12.6838 130.565 12.6782C130.545 12.6726 130.526 12.663 130.509 12.6498C130.35 12.5555 130.19 12.4649 130.034 12.365C129.979 12.3299 129.945 12.3262 129.914 12.3909C129.883 12.4479 129.849 12.5029 129.812 12.5555C129.793 12.5851 129.789 12.611 129.812 12.635C129.834 12.659 129.858 12.6831 129.895 12.6609C129.973 12.6128 130.003 12.6701 130.04 12.7219C130.077 12.7737 130.04 12.8162 130.003 12.8458C129.966 12.8754 129.966 12.9087 129.984 12.9456C130.001 12.9689 130.014 12.9944 130.023 13.0214C130.038 13.1009 130.084 13.112 130.149 13.0917C130.214 13.0714 130.248 13.1157 130.27 13.1768C130.292 13.2378 130.283 13.2785 130.22 13.308C130.157 13.3376 130.125 13.3284 130.127 13.382C130.128 13.4445 130.137 13.5066 130.153 13.5669C130.164 13.6002 130.211 13.5909 130.24 13.5928C130.303 13.5928 130.32 13.6316 130.322 13.6889C130.324 13.7463 130.322 13.7814 130.253 13.7943C130.222 13.7943 130.172 13.7943 130.161 13.835C130.145 13.9077 130.133 13.9811 130.125 14.055C130.125 14.055 130.144 14.0791 130.159 14.0846C130.216 14.1105 130.25 14.1364 130.227 14.2159C130.205 14.2954 130.164 14.3213 130.086 14.3028C130.057 14.3028 130.042 14.3028 130.031 14.3379C130.009 14.3853 129.984 14.431 129.956 14.4748C129.948 14.4842 129.941 14.4953 129.937 14.5074C129.933 14.5195 129.931 14.5324 129.932 14.5452C129.934 14.5579 129.938 14.5703 129.944 14.5814C129.95 14.5925 129.959 14.6022 129.969 14.6098C130.025 14.6597 129.969 14.7022 129.945 14.7447C129.921 14.7873 129.888 14.7891 129.849 14.7632C129.841 14.7555 129.83 14.7499 129.82 14.7468C129.809 14.7438 129.797 14.7434 129.786 14.7458C129.775 14.7481 129.764 14.7532 129.756 14.7604C129.747 14.7676 129.74 14.7768 129.736 14.7873C129.715 14.8164 129.689 14.8415 129.66 14.8612C129.606 14.8945 129.591 14.9315 129.628 14.987C129.665 15.0424 129.613 15.0942 129.569 15.133C129.524 15.1719 129.489 15.133 129.455 15.1053C129.422 15.0776 129.439 15.0831 129.428 15.0794C129.383 15.0609 129.168 15.2107 129.175 15.2643C129.19 15.3512 129.14 15.3789 129.071 15.3974C129.03 15.4085 129.003 15.3974 128.984 15.3623C128.966 15.3272 128.962 15.2662 128.902 15.2939C128.843 15.3216 128.717 15.2828 128.706 15.3956C128.693 15.4788 128.646 15.4899 128.58 15.4954C128.513 15.501 128.483 15.4862 128.474 15.4252C128.465 15.3642 128.435 15.3401 128.366 15.3346C128.298 15.329 128.181 15.305 128.136 15.4215C128.112 15.4751 128.041 15.4437 127.993 15.4215C127.984 15.419 127.975 15.4145 127.967 15.4084C127.959 15.4023 127.953 15.3946 127.949 15.3859C127.944 15.3772 127.941 15.3676 127.941 15.3578C127.94 15.348 127.942 15.3382 127.945 15.329C127.965 15.2625 127.932 15.2366 127.873 15.2218C127.842 15.213 127.812 15.2006 127.784 15.1848C127.733 15.1626 127.691 15.1589 127.655 15.2088C127.62 15.2588 127.574 15.2403 127.531 15.2088C127.488 15.1774 127.435 15.1626 127.459 15.0923C127.47 15.0609 127.5 15.0239 127.459 14.9925C127.406 14.9451 127.351 14.9007 127.294 14.8594C127.275 14.8464 127.258 14.8594 127.242 14.8779C127.19 14.913 127.141 14.9278 127.088 14.8779C127.034 14.8279 127.012 14.7762 127.069 14.7133C127.075 14.7076 127.079 14.7009 127.083 14.6934C127.086 14.6859 127.087 14.6779 127.087 14.6698C127.087 14.6618 127.086 14.6538 127.083 14.6463C127.079 14.6388 127.075 14.6321 127.069 14.6264C127.047 14.598 127.028 14.5677 127.012 14.5358C127.008 14.5229 127.001 14.5109 126.992 14.5006C126.983 14.4903 126.973 14.482 126.96 14.4761C126.948 14.4702 126.935 14.4668 126.921 14.4663C126.908 14.4657 126.894 14.468 126.882 14.4729C126.862 14.4773 126.841 14.4769 126.821 14.4718C126.801 14.4667 126.782 14.457 126.766 14.4436C126.751 14.4302 126.738 14.4133 126.73 14.3943C126.722 14.3754 126.719 14.3548 126.72 14.3342C126.72 14.2973 126.743 14.2825 126.77 14.2714C126.828 14.2473 126.833 14.2085 126.813 14.1549C126.793 14.1013 126.78 13.9959 126.661 13.9903C126.542 13.9848 126.59 13.8831 126.577 13.8184C126.564 13.7537 126.627 13.7592 126.659 13.7481C126.67 13.747 126.681 13.7434 126.69 13.7377C126.699 13.732 126.708 13.7242 126.714 13.715C126.72 13.7058 126.724 13.6954 126.725 13.6844C126.726 13.6735 126.725 13.6624 126.722 13.652C126.717 13.6164 126.717 13.5802 126.722 13.5447C126.727 13.5321 126.728 13.5186 126.727 13.5052C126.725 13.4918 126.721 13.479 126.714 13.4676C126.707 13.4562 126.697 13.4466 126.686 13.4394C126.674 13.4323 126.661 13.4278 126.648 13.4264C126.585 13.4097 126.579 13.3598 126.587 13.3025C126.586 13.291 126.589 13.2796 126.593 13.2692C126.598 13.2587 126.605 13.2496 126.614 13.2424C126.623 13.2352 126.634 13.2302 126.645 13.2278C126.657 13.2254 126.668 13.2257 126.679 13.2285C126.741 13.2285 126.767 13.21 126.774 13.1509C126.781 13.1094 126.792 13.0685 126.806 13.0288C126.817 12.9937 126.806 12.966 126.778 12.9493C126.711 12.9142 126.707 12.8661 126.737 12.8033C126.767 12.7404 126.794 12.6849 126.88 12.7311C126.886 12.7342 126.892 12.736 126.899 12.7364C126.905 12.7369 126.912 12.7359 126.918 12.7336C126.924 12.7314 126.929 12.7278 126.934 12.7233C126.939 12.7187 126.942 12.7132 126.945 12.7071C126.982 12.6498 127.017 12.5925 127.058 12.537C127.099 12.4815 127.058 12.476 127.045 12.4501C127.036 12.4403 127.03 12.4288 127.026 12.4164C127.022 12.404 127.021 12.3909 127.023 12.378C127.024 12.365 127.029 12.3526 127.035 12.3415C127.042 12.3303 127.051 12.3207 127.062 12.3133C127.104 12.2763 127.138 12.2412 127.193 12.2911C127.249 12.341 127.253 12.317 127.283 12.28C127.31 12.2484 127.342 12.2205 127.377 12.1968C127.402 12.1847 127.422 12.1639 127.432 12.1384C127.443 12.1128 127.444 12.0842 127.435 12.0581C127.416 11.9952 127.435 11.9472 127.514 11.9176L126.687 11.422C126.687 11.422 126.674 11.422 126.67 11.422C126.466 11.4646 126.345 11.3018 126.191 11.226C126.082 11.1708 125.976 11.1091 125.874 11.0411C125.828 11.0116 125.8 11.0171 125.774 11.0652C125.728 11.1465 125.672 11.2242 125.629 11.3074C125.586 11.3906 125.549 11.3851 125.484 11.3444C125.254 11.2039 125.022 11.0689 124.792 10.9283C124.744 10.9006 124.705 10.8692 124.668 10.9413C124.649 10.9801 124.614 10.9672 124.584 10.9413L124.091 10.6491C124.056 10.6288 124.028 10.6011 124.054 10.5641C124.102 10.4957 124.054 10.4735 124.006 10.4513C123.957 10.4291 123.924 10.3792 123.97 10.3145C124.017 10.2498 124.07 10.1481 124.122 10.0667C124.15 10.0242 124.143 9.99829 124.1 9.97425C124.057 9.95021 124.011 9.92063 123.967 9.89474C123.926 9.86238 123.88 9.83735 123.831 9.82078C123.777 9.82078 123.772 9.8855 123.736 9.91693C123.702 9.94418 123.662 9.96415 123.62 9.97559C123.578 9.98704 123.533 9.98973 123.49 9.9835C123.331 9.96994 123.174 9.95329 123.016 9.93357C122.99 9.92798 122.963 9.9295 122.938 9.93795C122.912 9.9464 122.889 9.96149 122.872 9.98165C122.789 10.0553 122.725 10.1479 122.686 10.2516C122.649 10.3773 122.547 10.4069 122.423 10.3533C122.405 10.3441 122.385 10.3407 122.365 10.3433C122.345 10.3459 122.326 10.3546 122.311 10.3681C122.274 10.3996 122.234 10.4269 122.191 10.4494C122.157 10.4644 122.128 10.4874 122.105 10.5165C122.082 10.5455 122.067 10.5796 122.061 10.6159C122.041 10.6687 122.004 10.7138 121.957 10.745C121.91 10.7762 121.854 10.7918 121.797 10.7897C121.662 10.8049 121.525 10.7904 121.397 10.7471C121.367 10.7305 121.363 10.7675 121.35 10.7823C121.315 10.8327 121.272 10.8776 121.224 10.9154C121.137 10.9672 121.064 10.9357 121.055 10.8359C121.055 10.7841 121.027 10.773 120.981 10.773C120.845 10.775 120.709 10.7582 120.578 10.7231C120.561 10.7167 120.542 10.717 120.525 10.7239C120.509 10.7307 120.495 10.7437 120.487 10.7601C120.461 10.8008 120.424 10.8334 120.38 10.8544C120.291 10.8951 120.215 10.8544 120.239 10.7619C120.263 10.6695 120.226 10.627 120.135 10.5992C120.036 10.5676 119.941 10.5255 119.851 10.4735C119.821 10.4536 119.785 10.443 119.749 10.443C119.712 10.443 119.677 10.4536 119.647 10.4735C119.502 10.5401 119.418 10.4957 119.391 10.3496C119.391 10.333 119.379 10.3126 119.391 10.3015C119.454 10.2035 119.372 10.1702 119.316 10.1166C119.298 10.1038 119.281 10.0889 119.266 10.0722C119.23 10.0173 119.178 9.97418 119.118 9.94822C119.057 9.92225 118.99 9.91459 118.925 9.92618C118.843 9.93727 118.7 9.79489 118.695 9.71539C118.689 9.63588 118.734 9.65992 118.765 9.65067C118.825 9.63033 118.838 9.6026 118.793 9.55637C118.771 9.46974 118.722 9.39217 118.654 9.33449C118.585 9.2768 118.5 9.2419 118.411 9.23464C118.314 9.23464 118.268 9.1237 118.225 9.04974C118.203 9.00721 118.225 8.99982 118.262 8.99427C118.3 8.98872 118.377 8.97393 118.435 8.96838C118.493 8.96283 118.493 8.95174 118.48 8.90736C118.457 8.82046 118.439 8.73171 118.422 8.6411C118.422 8.60227 118.385 8.59118 118.359 8.57639C118.28 8.53081 118.204 8.47952 118.133 8.42292C118.11 8.40563 118.094 8.38067 118.088 8.35266C118.066 8.20473 118.088 8.1807 118.236 8.21583C118.385 8.25096 118.374 8.25281 118.4 8.10304C118.416 8.03185 118.412 7.95733 118.386 7.88887C118.36 7.82042 118.315 7.76111 118.255 7.71844C118.217 7.696 118.189 7.65992 118.177 7.61762C118.165 7.57531 118.17 7.53001 118.19 7.49101C118.214 7.44109 118.227 7.4115 118.287 7.44294C118.346 7.47437 118.394 7.48916 118.448 7.51135C118.502 7.53354 118.507 7.52429 118.515 7.47807C118.517 7.44851 118.527 7.41997 118.543 7.39486C118.587 7.33199 118.608 7.25588 118.602 7.1794C118.596 7.10292 118.564 7.03076 118.511 6.97513C118.489 6.9365 118.481 6.89106 118.489 6.84721C118.498 6.80337 118.522 6.76408 118.557 6.73661C118.589 6.70887 118.609 6.73661 118.634 6.73661C118.7 6.76804 118.758 6.85495 118.819 6.83276C118.88 6.81057 118.906 6.72552 118.955 6.67374C118.979 6.65049 118.996 6.62036 119.003 6.58734C119.01 6.55431 119.007 6.51996 118.994 6.48884C118.973 6.43337 118.964 6.37605 118.947 6.32058C118.94 6.30437 118.939 6.28643 118.943 6.26944C118.948 6.25245 118.958 6.23731 118.971 6.22628C119.084 6.11904 119.083 6.11719 119.199 6.22628C119.316 6.33537 119.294 6.30764 119.413 6.22628C119.479 6.19253 119.532 6.13801 119.564 6.07116C119.596 6.00431 119.605 5.92885 119.589 5.85648C119.572 5.74553 119.662 5.73999 119.728 5.70855C119.795 5.67712 119.817 5.73814 119.845 5.77697C119.934 5.9064 119.934 5.90825 120.083 5.84353L120.17 5.80285M120.064 9.57856C120.332 9.74113 120.642 9.82083 120.955 9.80753C121.268 9.79424 121.57 9.68855 121.822 9.50389C122.075 9.31923 122.267 9.06392 122.374 8.77038C122.481 8.47684 122.497 8.15831 122.422 7.85522C122.347 7.55214 122.183 7.27817 121.951 7.06811C121.719 6.85804 121.43 6.72135 121.12 6.67539C120.81 6.62943 120.494 6.67627 120.21 6.80997C119.927 6.94366 119.69 7.15818 119.53 7.4263C119.315 7.78246 119.25 8.20905 119.35 8.61251C119.451 9.01598 119.707 9.36339 120.064 9.57856ZM129.082 12.6997C128.896 12.585 128.68 12.5281 128.461 12.5365C128.242 12.5449 128.03 12.6181 127.853 12.7467C127.676 12.8754 127.542 13.0536 127.467 13.2588C127.392 13.4639 127.38 13.6867 127.433 13.8985C127.486 14.1104 127.601 14.3018 127.763 14.4483C127.926 14.5948 128.128 14.6897 128.345 14.721C128.562 14.7523 128.783 14.7185 128.981 14.6239C129.178 14.5293 129.343 14.3783 129.454 14.19C129.6 13.9427 129.643 13.648 129.574 13.3693C129.504 13.0907 129.328 12.8502 129.082 12.6997ZM124.031 8.21028C124.071 8.16307 124.098 8.10731 124.111 8.04757C124.169 7.82929 124.196 7.60396 124.191 7.37822C124.198 7.09661 124.149 6.81641 124.046 6.5539C123.944 6.2914 123.79 6.05182 123.594 5.84908C123.108 5.37882 122.538 5.00263 121.914 4.73966C121.756 4.66445 121.581 4.6277 121.406 4.63242C121.374 4.63242 121.335 4.63242 121.33 4.6731C121.324 4.71378 121.371 4.71378 121.398 4.71563C121.573 4.72894 121.743 4.7721 121.903 4.84321C122.425 5.06187 122.909 5.36073 123.337 5.72889C123.722 6.04331 123.981 6.48383 124.069 6.97144C124.117 7.29137 124.117 7.61669 124.069 7.93663C124.052 8.02373 124.046 8.11255 124.052 8.20104M128.231 9.72278C127.694 9.4029 127.158 9.08117 126.62 8.76314C126.576 8.73541 126.507 8.66144 126.477 8.71322C126.447 8.76499 126.538 8.79827 126.585 8.82601L129.851 10.7878C129.869 10.8007 129.889 10.8118 129.91 10.8211C129.934 10.8322 129.945 10.8211 129.955 10.7971C129.958 10.7946 129.96 10.7916 129.962 10.788C129.964 10.7845 129.964 10.7806 129.964 10.7767C129.964 10.7728 129.964 10.7689 129.962 10.7654C129.96 10.7619 129.958 10.7588 129.955 10.7564L129.873 10.7028C129.337 10.3644 128.789 10.0427 128.238 9.72278M125.314 8.1659L125.056 8.01059C124.991 7.97546 124.926 7.89595 124.87 7.91259C124.815 7.92923 124.809 8.03832 124.764 8.09749C124.72 8.15666 124.748 8.18439 124.802 8.21768C125.015 8.33971 125.227 8.46914 125.436 8.58748C125.646 8.70582 125.633 8.70397 125.744 8.49873C125.772 8.44511 125.763 8.41922 125.713 8.39149C125.581 8.31568 125.451 8.23617 125.321 8.15851M128.24 10.0316L129.724 10.9228L129.801 10.969C129.83 10.9857 129.849 10.969 129.864 10.945C129.879 10.9209 129.864 10.9025 129.843 10.8895L129.786 10.8525L126.807 9.07562C126.774 9.05713 126.737 9.04234 126.702 9.0257C126.698 9.02386 126.694 9.02277 126.69 9.02252C126.686 9.02227 126.682 9.02286 126.678 9.02425C126.674 9.02564 126.671 9.0278 126.668 9.03059C126.665 9.03339 126.662 9.03676 126.661 9.04049C126.65 9.05898 126.661 9.07008 126.674 9.07932L126.746 9.1274C127.238 9.43433 127.735 9.73203 128.231 10.0316M127.926 10.2516C128.473 10.5807 129.021 10.908 129.57 11.2334C129.6 11.2519 129.641 11.3111 129.674 11.2501C129.708 11.1891 129.635 11.1854 129.606 11.1669C128.511 10.5111 127.416 9.8553 126.319 9.19951L126.269 9.16992C126.247 9.15883 126.232 9.16992 126.223 9.18841C126.214 9.2069 126.212 9.2254 126.232 9.23834L126.292 9.27347L127.926 10.2516ZM128.298 9.44358L129.724 10.296L130.066 10.4994C130.088 10.5123 130.112 10.529 130.135 10.4994C130.157 10.4698 130.135 10.455 130.107 10.4421C130.079 10.4291 130.04 10.3995 130.008 10.3792L127.039 8.59118C126.895 8.50428 126.75 8.41922 126.603 8.33601C126.577 8.32122 126.542 8.2787 126.514 8.33601C126.486 8.39333 126.54 8.38779 126.564 8.40258L128.307 9.44543M128.197 10.1166C127.715 9.82571 127.231 9.53665 126.746 9.24943C126.707 9.2254 126.668 9.20321 126.627 9.18287C126.587 9.16253 126.59 9.16992 126.579 9.19396C126.568 9.218 126.579 9.22355 126.598 9.23279C126.653 9.26977 126.709 9.31045 126.769 9.34558C127.733 9.92802 128.696 10.5142 129.671 11.0818L129.721 11.1096C129.725 11.1125 129.729 11.1146 129.734 11.1157C129.739 11.1168 129.744 11.1168 129.748 11.1157C129.753 11.1146 129.758 11.1125 129.762 11.1096C129.765 11.1066 129.769 11.1028 129.771 11.0985C129.784 11.0781 129.771 11.0615 129.756 11.0504L129.674 10.9986L128.19 10.1148M128.288 9.63218L129.932 10.614C129.945 10.6237 129.959 10.6324 129.973 10.6399C129.997 10.6399 130.023 10.6861 130.047 10.6399C130.071 10.5937 130.027 10.5992 130.008 10.5863C129.996 10.5756 129.982 10.5668 129.968 10.5604C128.88 9.87255 127.763 9.23464 126.655 8.58009L126.622 8.5616C126.601 8.5616 126.579 8.53201 126.563 8.5616C126.546 8.59118 126.577 8.60227 126.596 8.61522C126.614 8.62816 126.64 8.64295 126.663 8.65774L128.288 9.63033M128.778 9.53418C129.226 9.80291 129.674 10.0704 130.122 10.3367C130.151 10.3533 130.192 10.4088 130.226 10.3367C130.259 10.2645 130.192 10.2812 130.166 10.2664C129.278 9.73264 128.388 9.20013 127.498 8.66884C127.475 8.65405 127.453 8.64295 127.431 8.63001C127.409 8.61707 127.394 8.63001 127.385 8.6522C127.382 8.65554 127.381 8.65934 127.38 8.66335C127.379 8.66736 127.379 8.67149 127.38 8.67549C127.381 8.67948 127.382 8.68326 127.385 8.68657C127.387 8.68988 127.39 8.69266 127.394 8.69473L127.451 8.72986L128.778 9.52309M124.931 8.87223C125.058 8.94804 125.188 9.022 125.314 9.10151C125.36 9.13109 125.384 9.1274 125.412 9.07747C125.44 9.02755 125.444 9.00351 125.388 8.97023C125.134 8.82231 124.883 8.66884 124.629 8.51722C124.601 8.50058 124.564 8.4599 124.538 8.51722C124.512 8.57454 124.482 8.60412 124.555 8.6448C124.683 8.71322 124.805 8.79272 124.926 8.86668M123.92 9.53973L124.354 9.79859C124.373 9.80969 124.399 9.84112 124.421 9.81338C124.443 9.78565 124.404 9.76531 124.382 9.75052C124.093 9.57856 123.805 9.4066 123.514 9.23649C123.493 9.2254 123.467 9.19581 123.447 9.23649C123.427 9.27717 123.467 9.27717 123.488 9.28826C123.631 9.37702 123.775 9.46207 123.92 9.54897M127.036 6.88453C127.052 6.84015 127.067 6.79578 127.015 6.76434C127.006 6.75722 126.996 6.7521 126.985 6.74934C126.974 6.74657 126.962 6.74623 126.951 6.74834C126.94 6.75045 126.929 6.75495 126.92 6.76154C126.91 6.76813 126.902 6.77665 126.897 6.78653C126.889 6.79612 126.883 6.8072 126.88 6.81905C126.877 6.8309 126.877 6.84324 126.879 6.85528C126.881 6.86732 126.886 6.87879 126.893 6.88892C126.899 6.89906 126.908 6.90765 126.919 6.91412C126.969 6.9511 127.002 6.91412 127.036 6.88453ZM127.379 6.66635V6.64601L127.132 6.72921C127.131 6.73844 127.131 6.74772 127.132 6.75695L127.375 6.66635" fill="#6C9B2F"/>
<path d="M119.691 7.49286C119.888 7.17621 120.203 6.9495 120.566 6.86163C120.93 6.77377 121.313 6.8318 121.634 7.02321C121.954 7.21765 122.183 7.53075 122.271 7.89363C122.36 8.25652 122.3 8.63946 122.104 8.95821C121.909 9.27697 121.595 9.50543 121.231 9.59333C120.867 9.68123 120.482 9.62138 120.163 9.42694C119.846 9.22913 119.62 8.91606 119.532 8.55445C119.444 8.19283 119.501 7.81126 119.691 7.49101M121.371 8.57454C121.45 8.44524 121.474 8.2902 121.44 8.14285C121.405 7.9955 121.313 7.86765 121.185 7.78686C121.087 7.72457 120.973 7.69274 120.857 7.69544C120.741 7.69813 120.629 7.73524 120.534 7.802C120.44 7.86876 120.367 7.96214 120.326 8.0702C120.285 8.17825 120.277 8.29606 120.304 8.40855C120.33 8.52104 120.39 8.6231 120.475 8.70165C120.56 8.78021 120.666 8.83169 120.781 8.84951C120.896 8.86734 121.013 8.85069 121.118 8.80171C121.223 8.75272 121.311 8.67363 121.371 8.57454ZM121.985 8.90367C121.985 8.86854 122.072 8.8408 121.996 8.79088C121.92 8.74095 121.892 8.75205 121.849 8.82601C121.785 8.92617 121.703 9.01337 121.606 9.08302C121.582 9.10336 121.519 9.1163 121.569 9.16623C121.619 9.21615 121.634 9.27902 121.714 9.21061C121.817 9.12076 121.909 9.01753 121.985 8.90367ZM119.762 7.76282C119.722 7.85375 119.694 7.94946 119.678 8.04757C119.658 8.17885 119.665 8.1844 119.797 8.16036C119.845 8.15112 119.853 8.12338 119.864 8.08455C119.89 7.99395 119.91 7.91259 119.814 7.84972C119.791 7.83493 119.784 7.80165 119.762 7.76282ZM121.385 7.08238C121.377 7.09528 121.372 7.10995 121.371 7.12512C121.37 7.1403 121.373 7.15553 121.379 7.16952C121.385 7.18351 121.394 7.19584 121.406 7.20546C121.418 7.21508 121.432 7.2217 121.447 7.22475C121.487 7.24528 121.526 7.26877 121.564 7.29502C121.638 7.34309 121.638 7.34309 121.705 7.27098C121.611 7.18967 121.503 7.12692 121.385 7.08608M120.177 9.05714C120.25 8.98502 120.177 8.9462 120.135 8.89257C120.092 8.83895 120.007 8.87223 119.968 8.90182C119.929 8.9314 119.992 8.96469 120.016 8.99427C120.043 9.02506 120.072 9.05408 120.103 9.08117C120.138 9.1163 120.163 9.11446 120.177 9.05714ZM120.209 7.24509C120.298 7.2303 120.374 7.16004 120.471 7.19702C120.476 7.19429 120.481 7.18973 120.484 7.18408C120.508 7.13045 120.562 7.10272 120.619 7.03985C120.466 7.07039 120.325 7.14128 120.209 7.24509Z" fill="#6C9B2F"/>
<path d="M129.339 14.1216C129.24 14.2819 129.096 14.4096 128.925 14.4885C128.754 14.5674 128.563 14.5939 128.377 14.5648C128.191 14.5356 128.017 14.4521 127.878 14.3247C127.74 14.1974 127.642 14.0319 127.598 13.8493C127.553 13.6666 127.564 13.475 127.629 13.2986C127.694 13.1221 127.81 12.9689 127.963 12.8581C128.115 12.7473 128.297 12.6841 128.485 12.6763C128.674 12.6685 128.86 12.7165 129.021 12.8144C129.234 12.9483 129.387 13.1598 129.446 13.4038C129.505 13.6479 129.467 13.9054 129.339 14.1216Z" fill="#6C9B2F"/>
<path d="M121.159 7.83863C121.276 7.91354 121.359 8.03097 121.391 8.16596C121.422 8.30096 121.4 8.44289 121.328 8.56159C121.292 8.62108 121.245 8.67295 121.19 8.7142C121.134 8.75545 121.07 8.78525 121.003 8.8019C120.935 8.81854 120.865 8.82169 120.797 8.81116C120.728 8.80063 120.662 8.77663 120.603 8.74055C120.544 8.70446 120.492 8.65702 120.451 8.60096C120.411 8.54491 120.381 8.48135 120.365 8.41397C120.35 8.3466 120.347 8.27674 120.359 8.20845C120.37 8.14016 120.395 8.07479 120.432 8.01613C120.466 7.95564 120.513 7.90273 120.569 7.86054C120.625 7.81834 120.688 7.78772 120.756 7.77048C120.824 7.75324 120.895 7.74973 120.964 7.76016C121.033 7.7706 121.099 7.79477 121.159 7.83123" fill="#6C9B2F"/>
<path d="M86.8377 14.0495C87.0084 14.0495 87.1439 13.9386 87.3016 13.9256C87.4594 13.9127 87.8583 14.166 87.8119 14.3305C87.7895 14.3946 87.752 14.4523 87.7024 14.4988L88.2591 14.0994C88.1825 14.1197 88.1019 14.1197 88.0253 14.0994C87.7173 13.9959 87.9196 13.4282 87.9919 13.2415C88.0818 12.9395 88.1439 12.6301 88.1775 12.317C88.2675 11.8265 88.1587 11.3205 87.875 10.9099C87.6615 10.6398 87.4118 10.4003 87.1328 10.198C86.8629 10.0228 86.6384 9.78647 86.4777 9.5083C86.518 9.51987 86.5601 9.52305 86.6016 9.51764C86.6432 9.51223 86.6831 9.49835 86.719 9.47686C86.7041 9.41055 86.6661 9.35166 86.6117 9.31068C86.5574 9.2697 86.4901 9.24931 86.4221 9.25313L86.7097 9.01276C86.5889 9.04772 86.4612 9.05154 86.3386 9.02385C86.3471 8.9268 86.3298 8.82923 86.2885 8.74095C86.2669 8.69752 86.2316 8.66237 86.188 8.64098C86.1444 8.61958 86.0949 8.61313 86.0472 8.62261C86.025 8.63012 86.0051 8.64318 85.9893 8.66055C85.9736 8.67792 85.9626 8.69902 85.9574 8.72184C85.9522 8.74465 85.9529 8.76842 85.9596 8.79086C85.9662 8.81331 85.9785 8.83368 85.9953 8.85004C85.9549 8.78887 85.9018 8.73715 85.8394 8.69842C85.8087 8.67906 85.7728 8.66973 85.7365 8.67171C85.7002 8.6737 85.6655 8.68692 85.6372 8.70952C85.6232 8.72203 85.6126 8.73786 85.6064 8.75554C85.6003 8.77322 85.5987 8.79217 85.6018 8.81063C85.605 8.82908 85.6127 8.84644 85.6244 8.86109C85.6361 8.87575 85.6514 8.88721 85.6687 8.89442C85.6593 8.8841 85.6479 8.87585 85.6351 8.87021C85.6223 8.86456 85.6085 8.86165 85.5945 8.86165C85.5805 8.86165 85.5667 8.86456 85.5539 8.87021C85.5411 8.87585 85.5296 8.8841 85.5203 8.89442L85.6242 9.00351L85.4572 9.06453C85.5273 9.08778 85.5904 9.12825 85.6407 9.18222C85.6909 9.23619 85.7267 9.30191 85.7448 9.37332C85.777 9.51654 85.7999 9.66168 85.8134 9.80784C85.8969 10.32 86.2514 10.7767 86.2606 11.2871C86.2698 11.4361 86.2301 11.5841 86.1474 11.7086C86.105 11.7691 86.0462 11.8162 85.9778 11.8443C85.9094 11.8725 85.8343 11.8806 85.7615 11.8676C85.5221 11.8122 85.4256 11.5219 85.2363 11.361C85.1255 11.2839 84.9975 11.2347 84.8634 11.2177C84.7293 11.2006 84.593 11.2162 84.4663 11.263C84.3072 11.3072 84.1586 11.3826 84.0292 11.4848C83.8998 11.5871 83.7923 11.7141 83.7129 11.8584C83.6358 12.0064 83.601 12.1726 83.6125 12.339C83.624 12.5053 83.6812 12.6653 83.7778 12.8014C83.8331 12.5843 83.9558 12.3901 84.1285 12.2467C84.0661 12.3832 84.033 12.5312 84.0314 12.6812C84.0298 12.8312 84.0597 12.9798 84.1193 13.1176L84.5665 12.5925C84.496 12.6962 84.4542 12.8166 84.4451 12.9415C84.4359 13.0664 84.4599 13.1915 84.5145 13.3043C84.5837 13.1101 84.6967 12.9342 84.8448 12.7903C85.0917 13.1142 85.375 13.4089 85.6891 13.6686C86.0092 13.9175 86.4059 14.0482 86.8118 14.0384" fill="#6C9B2F"/>
<path d="M91.6753 9.73387C91.6889 9.76661 91.6988 9.8007 91.705 9.83557C91.7351 10.0048 91.7307 10.1784 91.692 10.3459C91.6222 10.5397 91.515 10.7181 91.3766 10.871C91.3495 10.9013 91.3332 10.9397 91.3302 10.9801C91.3302 11.0689 91.4749 11.2038 91.5324 11.2649C91.6271 11.3647 91.6864 11.3795 91.8089 11.2981C91.8249 11.2842 91.8444 11.2748 91.8652 11.2709C91.8861 11.267 91.9077 11.2687 91.9277 11.276C91.8199 11.354 91.7176 11.4393 91.6215 11.5311C91.5621 11.5884 91.4879 11.6365 91.4359 11.6883C91.4081 11.7142 91.4007 11.7364 91.3599 11.7493C91.319 11.7622 91.2782 11.7493 91.2745 11.7493C91.3376 11.6975 91.4601 11.5755 91.4601 11.4867C91.4578 11.4553 91.4454 11.4255 91.4248 11.4017C91.2133 11.1132 90.9479 11.1743 90.6492 11.2168C90.3517 11.2471 90.0512 11.2169 89.7659 11.128C89.5623 11.0866 89.3699 11.0023 89.2015 10.8808C89.0332 10.7593 88.8929 10.6034 88.7898 10.4236C88.723 10.2923 88.6859 10.1499 88.6191 10.0205C88.5895 9.95233 88.5453 9.89151 88.4895 9.8423C88.4337 9.79309 88.3677 9.75671 88.2962 9.73572C88.2859 9.77191 88.2626 9.80311 88.2309 9.82351C88.1992 9.84392 88.1611 9.85214 88.1237 9.84666C88.0864 9.8382 88.0532 9.81724 88.0295 9.78728C88.0059 9.75733 87.9933 9.7202 87.9938 9.6821L87.7767 9.77455C87.7946 9.71917 87.8157 9.66485 87.8398 9.61183C87.7321 9.52863 87.7526 9.43803 87.8286 9.34188C87.7891 9.33904 87.7522 9.32111 87.7256 9.29184C87.699 9.26257 87.6847 9.2242 87.6858 9.18471C87.6888 9.16533 87.6958 9.14679 87.7064 9.13029C87.7171 9.11378 87.7311 9.09968 87.7475 9.08888C87.7639 9.07808 87.7824 9.07083 87.8018 9.06759C87.8212 9.06435 87.8411 9.0652 87.8602 9.07007C87.8562 9.05317 87.8591 9.03539 87.8681 9.02054C87.8771 9.00569 87.8916 8.99493 87.9084 8.99056C87.9253 8.98963 87.942 8.9937 87.9566 9.00226C87.9711 9.01082 87.9828 9.02348 87.9901 9.03864C88.1478 8.86853 88.6191 9.13109 88.7936 9.22354C88.9628 9.32938 89.1449 9.41327 89.3354 9.47316C89.4587 9.49988 89.5863 9.50124 89.7102 9.47715C89.8341 9.45306 89.9517 9.40403 90.0559 9.33306C90.1602 9.2621 90.2488 9.17069 90.3163 9.06442C90.3838 8.95816 90.4289 8.83928 90.4488 8.71506C90.4558 8.51771 90.4509 8.32012 90.4339 8.12337C90.4339 7.99949 90.4933 7.55202 90.6826 7.56866C90.7215 7.57444 90.7576 7.59243 90.7857 7.62002C90.8137 7.64761 90.8322 7.68338 90.8384 7.72213C90.8497 7.79845 90.8401 7.87638 90.8106 7.94771C90.7939 7.84047 90.9646 7.79424 91.0444 7.87005C91.0786 7.91259 91.1026 7.96238 91.1145 8.01558C91.1264 8.06879 91.1259 8.124 91.1131 8.17699C91.0833 8.28219 91.0833 8.39352 91.1131 8.49872C91.1386 8.44652 91.182 8.40518 91.2355 8.38223C91.2629 8.37217 91.293 8.37202 91.3205 8.38183C91.3479 8.39163 91.3711 8.41076 91.3858 8.43585C91.4118 8.48763 91.3691 8.56344 91.3116 8.55419L91.4397 8.53755L91.4118 8.97762C91.3933 8.90181 91.5139 8.85743 91.5732 8.9092C91.5994 8.93801 91.6171 8.97346 91.6243 9.01164C91.6315 9.04982 91.6279 9.08924 91.6141 9.12554C91.5867 9.19841 91.5674 9.27406 91.5565 9.35112C91.5785 9.48109 91.6231 9.60624 91.6883 9.72093" fill="#6C9B2F"/>
<path d="M91.95 11.1447L91.5789 11.4331C91.1261 11.7826 90.6715 12.1284 90.2206 12.4815C90.1408 12.5425 90.061 12.6424 89.9756 12.6942C89.8903 12.7459 89.8179 12.7237 89.7529 12.7552C89.6268 12.818 89.5173 13.0122 89.3354 12.8735C89.3707 12.9009 89.3976 12.9376 89.413 12.9794C89.4284 13.0213 89.4317 13.0666 89.4226 13.1102C89.3874 13.2655 89.0868 13.3617 88.968 13.4541L88.3946 13.8997L87.4984 14.6042C87.4334 14.656 87.3648 14.717 87.2924 14.778C87.3494 14.79 87.4058 14.8048 87.4613 14.8224C88.9581 13.6637 90.4513 12.4957 91.9407 11.3185C91.9407 11.263 91.9407 11.2075 91.95 11.1521" fill="#6C9B2F"/>
<path d="M96.3811 8.9425C96.229 8.71507 96.3069 8.38779 96.1343 8.16776C96.0341 8.04202 95.8597 7.96806 95.7929 7.82569C95.6853 7.59456 95.9005 7.28392 95.8022 7.0491C95.7447 6.91042 95.5907 6.83091 95.47 6.73106C95.3256 6.6143 95.2217 6.45514 95.1731 6.2762C95.1604 6.20815 95.1398 6.14177 95.1119 6.07836C95.0637 5.98961 94.9653 5.91195 94.9969 5.8084C95.0112 5.77867 95.0206 5.74683 95.0247 5.7141C95.0247 5.68082 94.995 5.65863 94.9746 5.63274C94.9534 5.60376 94.94 5.56982 94.9358 5.53419C94.9316 5.49857 94.9366 5.46246 94.9505 5.42935C94.9429 5.43486 94.9343 5.43876 94.9251 5.44081C94.916 5.44287 94.9065 5.44304 94.8973 5.4413C94.8881 5.43957 94.8793 5.43598 94.8715 5.43074C94.8638 5.42551 94.8572 5.41874 94.8521 5.41086C94.84 5.37867 94.84 5.3432 94.8521 5.31101C94.867 5.2352 94.88 5.15939 94.8948 5.08543L94.943 5.06509C94.9226 5.07989 94.9282 5.00408 94.9078 5.01887C94.8874 5.03366 94.9078 5.06324 94.8948 5.08543H94.88C94.8635 4.99699 94.88 4.90562 94.9263 4.82842C94.9828 4.71783 95.0492 4.61261 95.1249 4.51408C95.1491 4.47575 95.1799 4.44195 95.2158 4.41424C95.2337 4.39967 95.2551 4.38996 95.2778 4.38607C95.3006 4.38219 95.324 4.38424 95.3457 4.39205C95.3573 4.34395 95.3866 4.30197 95.4279 4.27454C95.4692 4.2471 95.5194 4.23624 95.5684 4.24413C95.548 4.17017 95.6742 4.08511 95.7539 4.12209C95.7608 4.09946 95.7725 4.07856 95.7881 4.06076C95.8037 4.04297 95.823 4.0287 95.8446 4.0189C95.8662 4.0091 95.8896 4.004 95.9133 4.00394C95.9371 4.00388 95.9605 4.00886 95.9822 4.01855C95.9599 3.98711 95.9915 3.93719 96.0323 3.91685C96.0752 3.89952 96.1215 3.89194 96.1677 3.89466C96.1842 3.85961 96.214 3.83253 96.2506 3.81935C96.2871 3.80618 96.3274 3.80799 96.3626 3.8244C96.3626 3.719 96.5129 3.68387 96.602 3.70421C96.682 3.62022 96.7865 3.56332 96.9007 3.5415C96.9224 3.53953 96.9434 3.53256 96.9619 3.52116C96.9734 3.5095 96.9834 3.49645 96.9916 3.48233C97.0123 3.45413 97.0413 3.43297 97.0745 3.42172C97.1077 3.41047 97.1435 3.40968 97.1772 3.41946C97.1345 3.40467 97.3461 3.26784 97.3869 3.26599C97.3707 3.24942 97.3616 3.22719 97.3616 3.20405C97.3616 3.18091 97.3707 3.15868 97.3869 3.14211C97.4057 3.12394 97.4293 3.11151 97.4549 3.10627C97.4806 3.10102 97.5072 3.1032 97.5316 3.11252C97.5442 3.12093 97.5592 3.12484 97.5743 3.12362C97.5819 3.12025 97.5888 3.11541 97.5945 3.10938C97.6003 3.10335 97.6047 3.09625 97.6077 3.08849C97.6282 3.05756 97.6557 3.03179 97.6879 3.01318C97.72 2.99458 97.7561 2.98365 97.7933 2.98124C97.7654 2.98124 97.7636 2.93687 97.7933 2.91468C97.8172 2.89428 97.8459 2.88028 97.8768 2.874C97.9075 2.86684 97.9357 2.85151 97.9584 2.82962C97.9844 2.80004 97.9807 2.76121 98.0122 2.73532C98.0438 2.70944 98.1273 2.73532 98.1681 2.69095C98.1799 2.67584 98.1893 2.659 98.1959 2.64102C98.2627 2.5005 98.4279 2.58001 98.4928 2.47831C98.5355 2.4099 98.4761 2.32669 98.5318 2.24903C98.6389 2.29861 98.7582 2.31596 98.8751 2.29895C98.8038 2.2944 98.735 2.27114 98.6757 2.23151C98.6164 2.19189 98.5687 2.13733 98.5374 2.07337C98.5237 2.05105 98.5137 2.02671 98.5077 2.00126C98.4997 1.91764 98.5092 1.83329 98.5355 1.75349C98.5466 1.69063 98.5745 1.65919 98.5615 1.59818C98.5467 1.66015 98.5209 1.71901 98.4854 1.77198C98.4638 1.80125 98.4359 1.82539 98.4039 1.84265C98.3718 1.85992 98.3362 1.86988 98.2998 1.87183C98.2815 1.86814 98.2625 1.86814 98.2442 1.87183C98.2126 1.88662 98.2033 1.9273 98.1699 1.94209C98.1478 1.94582 98.1253 1.94582 98.1031 1.94209C98.0497 1.95515 97.998 1.97439 97.9491 1.99941C97.8972 2.0179 97.8248 1.99941 97.8322 1.95688C97.7404 1.99606 97.6405 2.01256 97.5409 2.00496C97.4972 2.00336 97.4549 1.98949 97.4188 1.96495C97.3826 1.94042 97.3542 1.90621 97.3368 1.86628C97.324 1.82164 97.3286 1.77385 97.3495 1.7324C97.3705 1.69095 97.4064 1.65888 97.45 1.64255C97.4393 1.64282 97.4287 1.64011 97.4195 1.63473C97.4103 1.62935 97.4027 1.62152 97.3977 1.61212C97.3927 1.60271 97.3904 1.59209 97.3911 1.58147C97.3918 1.57084 97.3955 1.56062 97.4017 1.55195C97.4212 1.53055 97.443 1.51133 97.4667 1.49463C97.5149 1.45025 97.526 1.37999 97.5854 1.34856C97.6151 1.33007 97.6522 1.32822 97.6819 1.30973C97.7023 1.29313 97.7209 1.27455 97.7376 1.25426C97.7619 1.23029 97.7909 1.21166 97.8229 1.19955C97.8549 1.18745 97.889 1.18215 97.9231 1.18399C97.9231 1.14886 97.9547 1.11003 97.9955 1.09339C98.0372 1.07887 98.0813 1.07259 98.1254 1.0749C98.2591 0.993304 98.4122 0.948631 98.5689 0.945469C98.5432 0.916977 98.5287 0.880211 98.5281 0.841924C98.532 0.820387 98.5435 0.800946 98.5605 0.787063C98.5775 0.773181 98.5989 0.765758 98.6209 0.766115C98.567 0.755021 98.58 0.682908 98.6209 0.64223C98.6617 0.601551 98.7155 0.566419 98.7322 0.518345C98.737 0.491185 98.7445 0.464557 98.7545 0.438837C98.7651 0.424499 98.7798 0.413551 98.7966 0.407317C98.8134 0.401083 98.8316 0.399828 98.8491 0.403706C98.8563 0.367469 98.8774 0.335444 98.9078 0.314398C98.9383 0.293352 98.9758 0.284931 99.0124 0.290915C99.0195 0.265391 99.0329 0.242043 99.0514 0.222992C99.0698 0.20394 99.0928 0.189789 99.1182 0.181823C99.1424 0.173053 99.1686 0.170828 99.194 0.175374C99.2194 0.179919 99.2432 0.191074 99.2629 0.207709C99.292 0.172561 99.3331 0.149349 99.3783 0.142524C99.4235 0.1357 99.4696 0.145743 99.5078 0.170728C99.5191 0.153443 99.5349 0.139619 99.5536 0.130801C99.5723 0.121984 99.5931 0.118522 99.6136 0.120805C99.6227 0.121473 99.6316 0.124007 99.6397 0.128247C99.6479 0.132488 99.655 0.138345 99.6608 0.145454C99.6665 0.152564 99.6707 0.160774 99.6731 0.169575C99.6756 0.178376 99.6761 0.187581 99.6748 0.196615C99.7194 0.177663 99.7674 0.168215 99.8159 0.16888C99.8623 0.16888 99.9031 0.207709 99.892 0.250236C99.9011 0.238478 99.9138 0.230091 99.9283 0.226407C99.9427 0.222723 99.958 0.223955 99.9716 0.229907C99.9853 0.235859 99.9965 0.246188 100.004 0.259253C100.011 0.272318 100.013 0.287369 100.011 0.302009C100.154 0.242841 100.174 0.37597 100.196 0.457327C100.372 0.356482 100.566 0.293487 100.768 0.272425C101.076 0.242841 101.401 0.359329 101.464 0.607098C101.478 0.645329 101.478 0.687204 101.464 0.725435C101.429 0.786048 101.376 0.833548 101.311 0.860414C101.112 0.970958 100.89 1.03423 100.662 1.04532C100.709 1.04277 100.756 1.05694 100.794 1.08533C100.832 1.11373 100.859 1.15455 100.87 1.20063C100.886 1.29056 100.886 1.38251 100.87 1.47244C100.868 1.62001 100.83 1.76493 100.76 1.89452C100.689 2.02411 100.587 2.13441 100.463 2.21575C100.575 2.19109 100.673 2.12499 100.738 2.03085C100.748 2.06446 100.75 2.09962 100.746 2.13424C100.741 2.16886 100.73 2.20224 100.712 2.23239C100.719 2.22915 100.726 2.22745 100.734 2.22742C100.742 2.22738 100.749 2.22901 100.756 2.23218C100.763 2.23536 100.769 2.24 100.774 2.24579C100.779 2.25157 100.783 2.25836 100.784 2.26567C100.786 2.2959 100.778 2.32582 100.76 2.35073C100.796 2.38878 100.827 2.43099 100.853 2.47646C100.865 2.50424 100.869 2.53463 100.865 2.56452C100.861 2.59441 100.849 2.62273 100.831 2.64657C100.857 2.64657 100.882 2.65683 100.901 2.67516C100.92 2.69349 100.931 2.71841 100.931 2.74457C100.927 2.77236 100.918 2.79907 100.903 2.82296C100.889 2.84685 100.869 2.86739 100.846 2.88325C100.856 2.87653 100.867 2.87244 100.879 2.87135C100.891 2.87027 100.903 2.87222 100.914 2.87703C100.925 2.88184 100.934 2.88934 100.942 2.89884C100.949 2.90834 100.954 2.91952 100.955 2.93132C100.95 2.95629 100.941 2.98001 100.926 3.00101C100.912 3.022 100.893 3.03982 100.872 3.05336C100.893 3.0571 100.913 3.06596 100.93 3.07917C100.947 3.09237 100.961 3.10953 100.97 3.12917C100.983 3.17169 100.953 3.21237 100.909 3.23826C100.92 3.28875 100.926 3.34011 100.927 3.39173C100.927 3.47124 100.888 3.48973 100.87 3.55629C100.87 3.57663 100.888 3.59142 100.903 3.60621C100.913 3.61885 100.919 3.63361 100.921 3.64914C100.923 3.66468 100.921 3.68051 100.916 3.6952C100.91 3.70989 100.901 3.72297 100.889 3.73326C100.877 3.74355 100.863 3.75073 100.848 3.75414C100.869 3.7649 100.886 3.78304 100.894 3.80516C100.903 3.82728 100.904 3.85187 100.896 3.87432C100.885 3.89953 100.869 3.92182 100.848 3.93923C100.827 3.95664 100.802 3.96864 100.775 3.97417C100.794 3.98785 100.807 4.00768 100.812 4.03006C100.817 4.05244 100.814 4.0759 100.803 4.0962C100.79 4.11899 100.772 4.13841 100.75 4.15286C100.728 4.16732 100.703 4.17642 100.677 4.17941C100.708 4.22194 100.736 4.28665 100.677 4.32733C100.668 4.32733 100.655 4.34213 100.645 4.35137C100.636 4.36062 100.632 4.37541 100.645 4.3828C100.658 4.3902 100.675 4.3828 100.668 4.36801C100.701 4.40887 100.719 4.4597 100.72 4.51224C100.715 4.54322 100.702 4.57227 100.681 4.59565C100.66 4.61904 100.633 4.6357 100.603 4.64352C100.629 4.65415 100.651 4.67134 100.669 4.69339C100.686 4.71544 100.697 4.74158 100.701 4.76925C100.7 4.80032 100.688 4.83005 100.667 4.85286C100.646 4.87567 100.617 4.88999 100.586 4.89313C100.6 4.91222 100.609 4.93417 100.614 4.95739C100.618 4.9806 100.617 5.0045 100.611 5.02734C100.605 5.05019 100.594 5.0714 100.579 5.08944C100.564 5.10749 100.544 5.12191 100.523 5.13166C100.558 5.26664 100.549 5.41271 100.586 5.55139C100.632 5.73629 100.679 5.90825 100.727 6.08575C100.779 6.32527 100.863 6.55666 100.977 6.77359C101.154 7.07683 101.478 7.28762 101.748 7.52614C101.658 7.60289 101.557 7.66527 101.449 7.71105C101.398 7.73849 101.34 7.75069 101.282 7.74618C101.144 7.72584 101.122 7.54094 100.981 7.52984C100.929 7.53258 100.876 7.53258 100.823 7.52984C100.723 7.5095 100.729 7.39301 100.718 7.30426C100.686 7.16211 100.612 7.03301 100.504 6.93446L99.8047 6.15417C99.8047 6.06911 99.8047 5.96927 99.8047 5.89161C99.6821 6.21215 99.6669 6.5636 99.7612 6.8935C99.8555 7.22341 100.054 7.51408 100.328 7.72214C100.478 7.8014 100.606 7.91715 100.699 8.05866C100.673 8.11543 100.636 8.16636 100.59 8.20832C100.544 8.25029 100.489 8.28241 100.43 8.30273C100.328 8.31835 100.224 8.31835 100.122 8.30273C100.076 8.29884 100.032 8.28126 99.9959 8.25226C99.9598 8.22326 99.9333 8.18417 99.9198 8.14002C99.9198 8.10119 99.9198 8.05681 99.8938 8.02723C99.8701 8.00776 99.8431 7.99272 99.814 7.98285C99.6526 7.9015 99.7231 7.68146 99.6284 7.55758C99.3741 7.2773 99.1344 6.98415 98.9103 6.67929L98.6079 6.25401C98.6079 6.31688 98.7007 6.43892 98.6784 6.49624C98.6561 6.55356 98.5763 6.60903 98.5188 6.5628C98.527 6.58408 98.5278 6.6075 98.5211 6.6293C98.5144 6.65109 98.5005 6.67 98.4817 6.68299C98.4623 6.69826 98.4391 6.70804 98.4146 6.7113C98.3902 6.71455 98.3652 6.71116 98.3425 6.70148C98.3574 6.73476 98.3202 6.78099 98.2757 6.79393C98.2552 6.79952 98.2336 6.7999 98.2128 6.79506C98.1921 6.79022 98.1729 6.7803 98.157 6.7662C98.2015 6.80502 98.0215 6.88268 97.9974 6.88823C97.9324 6.90302 97.8471 6.8531 97.7933 6.86974C97.7784 6.86974 97.7691 6.89008 97.7617 6.90302C97.7172 6.96404 97.5984 6.97513 97.5632 6.91782L97.5261 6.94555C97.4092 7.03061 97.3089 6.99362 97.1735 6.97513C97.2899 7.01656 97.4119 7.04025 97.5353 7.0454C97.4542 7.09448 97.3896 7.16659 97.3498 7.25249C97.3377 7.29731 97.3377 7.3445 97.3498 7.38932C97.3968 7.62433 97.4903 7.84768 97.6247 8.04639C97.7591 8.24509 97.9319 8.4152 98.1328 8.5468L97.6801 8.76314C97.6555 8.77818 97.6272 8.78588 97.5984 8.78533C97.5868 8.78404 97.5755 8.78042 97.5653 8.7747C97.5551 8.76899 97.5462 8.76128 97.539 8.75205C97.4722 8.68363 97.4407 8.57824 97.3349 8.56714C97.2814 8.56765 97.228 8.56332 97.1753 8.5542C97.1122 8.52646 97.1048 8.4525 97.1011 8.38964C97.0915 8.20029 97.054 8.01339 96.9898 7.83493C96.972 7.77819 96.9444 7.72499 96.9081 7.67776C96.8673 7.62784 96.8116 7.58901 96.7708 7.54094C96.7301 7.48889 96.7058 7.42602 96.7008 7.36023C96.6958 7.29443 96.7105 7.22864 96.743 7.17113C96.6495 7.31265 96.5969 7.47703 96.5908 7.64633C96.5684 7.92886 96.6134 8.21265 96.7221 8.47455C96.8308 8.73644 97.0001 8.96902 97.2162 9.15328C97.0284 9.30074 96.7965 9.38144 96.5574 9.38256C96.4275 9.38256 96.4925 9.16623 96.4479 9.06638C96.4267 9.02764 96.4025 8.99055 96.3756 8.95544" fill="#6C9B2F"/>
</svg>
