<svg width="25" height="28" viewBox="0 0 25 28" fill="none" xmlns="http://www.w3.org/2000/svg">
<path d="M15.3598 24.6309C14.3056 24.6309 13.5071 24.4539 12.9643 24.0998C12.4214 23.7458 11.9612 23.3721 11.5836 22.9788C11.2847 22.6641 10.9975 22.3888 10.7222 22.1527C10.4468 21.9167 10.0967 21.7987 9.67192 21.7987C8.96389 21.7987 8.17719 21.6768 7.31182 21.4329C6.44644 21.189 5.63221 20.7878 4.86911 20.2293C4.106 19.6707 3.46484 18.943 2.94562 18.0462C2.42639 17.1493 2.15892 16.0479 2.14318 14.742C2.11171 12.1144 2.76074 9.95886 4.09027 8.27532C5.4198 6.59177 7.28035 5.75 9.67192 5.75C10.789 5.75 11.7331 5.91127 12.5041 6.23382C13.275 6.55637 13.9398 6.96152 14.4983 7.44928C15.0569 7.93703 15.5289 8.47592 15.9144 9.06595C16.2999 9.65598 16.6657 10.2263 17.0119 10.777C17.2007 11.0917 17.3895 11.3789 17.5783 11.6385C17.7671 11.8981 17.9716 12.138 18.1919 12.3583C19.136 13.3023 19.844 14.1284 20.316 14.8364C20.788 15.5444 21.024 16.6144 21.024 18.0462C21.024 19.9342 20.4379 21.5037 19.2658 22.7546C18.0936 24.0054 16.7916 24.6309 15.3598 24.6309ZM15.3598 22.7428C16.2566 22.7428 17.1102 22.2983 17.9205 21.4093C18.7308 20.5203 19.136 19.3993 19.136 18.0462C19.136 17.0077 18.9825 16.2446 18.6757 15.7569C18.3689 15.2691 17.7671 14.5768 16.8703 13.68C16.5398 13.3653 16.2448 13.0152 15.9852 12.6297C15.7256 12.2442 15.4621 11.8469 15.1946 11.4379C14.5495 10.4151 13.865 9.52617 13.1413 8.77094C12.4175 8.0157 11.2611 7.63809 9.67192 7.63809C7.64223 7.63809 6.18683 8.36579 5.30573 9.82119C4.42462 11.2766 3.9998 12.909 4.03127 14.7184C4.047 15.7726 4.27514 16.638 4.7157 17.3145C5.15625 17.9911 5.67941 18.5221 6.28517 18.9076C6.89093 19.2931 7.50849 19.5566 8.13785 19.6982C8.76722 19.8398 9.27857 19.9106 9.67192 19.9106C10.4744 19.9106 11.1195 20.1034 11.6072 20.4889C12.095 20.8744 12.4962 21.2323 12.8109 21.5627C13.157 21.9246 13.4914 22.2117 13.8139 22.4242C14.1365 22.6366 14.6518 22.7428 15.3598 22.7428ZM11.5836 18.4946C12.4962 18.4946 13.275 18.172 13.9201 17.5269C14.5652 16.8818 14.8878 16.103 14.8878 15.1904C14.8878 14.2779 14.5652 13.499 13.9201 12.8539C13.275 12.2088 12.4962 11.8863 11.5836 11.8863C10.671 11.8863 9.8922 12.2088 9.2471 12.8539C8.60201 13.499 8.27946 14.2779 8.27946 15.1904C8.27946 16.103 8.60201 16.8818 9.2471 17.5269C9.8922 18.172 10.671 18.4946 11.5836 18.4946Z" fill="#6C9B2F"/>
</svg>
