<svg width="25" height="28" viewBox="0 0 25 28" fill="none" xmlns="http://www.w3.org/2000/svg">
<path d="M13.9544 14.9723C13.1443 14.9723 12.4556 14.6887 11.8885 14.1216C11.3213 13.5545 11.0378 12.8658 11.0378 12.0556C11.0378 11.2454 11.3213 10.5568 11.8885 9.98964C12.4556 9.42251 13.1443 9.13894 13.9544 9.13894C14.7646 9.13894 15.4533 9.42251 16.0204 9.98964C16.5875 10.5568 16.8711 11.2454 16.8711 12.0556C16.8711 12.8658 16.5875 13.5545 16.0204 14.1216C15.4533 14.6887 14.7646 14.9723 13.9544 14.9723ZM7.14889 17.8889C6.61416 17.8889 6.15641 17.6985 5.77562 17.3178C5.39483 16.937 5.20444 16.4792 5.20444 15.9445V8.16672C5.20444 7.632 5.39483 7.17424 5.77562 6.79346C6.15641 6.41267 6.61416 6.22228 7.14889 6.22228H20.76C21.2947 6.22228 21.7525 6.41267 22.1333 6.79346C22.514 7.17424 22.7044 7.632 22.7044 8.16672V15.9445C22.7044 16.4792 22.514 16.937 22.1333 17.3178C21.7525 17.6985 21.2947 17.8889 20.76 17.8889H7.14889ZM9.09333 15.9445H18.8156C18.8156 15.4098 19.0059 14.952 19.3867 14.5712C19.7675 14.1904 20.2253 14.0001 20.76 14.0001V10.1112C20.2253 10.1112 19.7675 9.92077 19.3867 9.53998C19.0059 9.1592 18.8156 8.70144 18.8156 8.16672H9.09333C9.09333 8.70144 8.90294 9.1592 8.52215 9.53998C8.14136 9.92077 7.68361 10.1112 7.14889 10.1112V14.0001C7.68361 14.0001 8.14136 14.1904 8.52215 14.5712C8.90294 14.952 9.09333 15.4098 9.09333 15.9445ZM19.7878 21.7778H3.26C2.72527 21.7778 2.26752 21.5874 1.88673 21.2067C1.50595 20.8259 1.31555 20.3681 1.31555 19.8334V9.13894H3.26V19.8334H19.7878V21.7778Z" fill="#6C9B2F"/>
</svg>
